<svg xmlns="http://www.w3.org/2000/svg" xml:space="preserve" id="Layer_1" x="0" y="0" style="enable-background:new 0 0 5000 5000" viewBox="0 0 5000 5000"><style>.st10,.st9{fill-rule:evenodd;clip-rule:evenodd;fill:#e1111b}.st10{fill:#adadad}</style><path d="M3702.7 683.7c-10.5-4.1-15.7-16.3-11.5-26.8 4.2-10.5 16.2-15.7 26.7-11.6l198.3 78.3c10.5 4.2 15.8 16.3 11.6 26.8-4.2 10.5-16.3 15.8-26.8 11.6m-235.9-214.5c-10.2 4.8-22.5.3-27.4-9.9-4.8-10.3-.4-22.6 9.9-27.4l151.6-71.1c10.2-4.8 22.5-.3 27.4 10 4.8 10.2.4 22.6-9.9 27.4l-151.6 71zm-74.2-112.7c-6.9 9-19.9 10.5-28.9 3.6-9-7.1-10.6-20-3.6-28.9l266.3-341c7-9 19.9-10.5 28.9-3.5 9 6.9 10.7 19.9 3.7 28.9l-266.4 340.9z" class="st9"/><path d="M2500.2 3273c441.9 0 836.8 54.7 1093 140.1-340.6-20.1-708.8-31-1093-31-384.2 0-752.5 10.9-1093 31 256.2-85.3 651.1-140.1 1093-140.1" class="st10"/><path d="m2544 2116 89-100.1c69.7-11.2 137.3-30.8 198.7-57.6 331-144.6 359.1-528.5 271-760.7-18.5-48.9-46.6-96.2-82.2-137.7l75.5-39.2-130.5-15.1c-2.2-1.9-4.4-3.6-6.6-5.4l-58.3-169.8-48.6 107.8c-93.6-35.9-203.4-34.4-317 30.4-193 110-193.8 325.1-151.5 502.7 12.4 52.5 62.5 56.6 108.3 65.3 68.6 13 137.1 10.5 198.2-4.7 92.1-22.8 167.5-73.9 201.7-143.4.8-1.7 1.7-3.5 2.7-5.6 4.4-9.7 15.9-14.1 25.7-9.7 9.8 4.4 14 15.8 9.6 25.5-.9 2.1-2 4.4-3.1 6.7-39.4 80.1-124.3 138.8-227.3 164.2-111.1 27.4-258.8 12.6-360.8-45.7-38.7-22.1-75-54.8-94.5-91.2-32.4 90.1 6.8 187.8 22.2 212.5-11.6 17.7-89.6 38.1-144.4 32 48.3 68.1 123.6 119.2 189 146.5-37.8 44.8-96 86-180.9 92.5 80.1 61.8 182 95.9 289.7 106.8l-77.4 120.5 77.1-12.7 66.8-104c20.3.3 40.7-.2 61-1.4l-87.3 97.1" class="st9"/><path d="M2500.2 2295.5c85.6 0 155.5 69.9 155.5 155.5s-69.8 155.4-155.5 155.4-155.5-69.8-155.5-155.4c.1-85.6 69.9-155.5 155.5-155.5m-475.6 345.7c26.4-81.4 114.4-126.2 195.9-99.8 81.4 26.5 126.3 114.4 99.8 195.9-26.5 81.4-114.4 126.2-195.8 99.8-81.5-26.5-126.3-114.4-99.9-195.9zm181.8 559.2c-69.2-50.3-84.7-147.8-34.4-217.1 50.3-69.2 147.9-84.7 217.1-34.4 69.3 50.3 84.7 147.9 34.4 217.1-50.3 69.3-147.9 84.7-217.1 34.4zm588-.2c-69.2 50.4-166.8 34.9-217.1-34.3-50.3-69.3-34.9-166.8 34.4-217.1 69.3-50.3 166.8-34.8 217.1 34.4 50.3 69.3 34.8 166.7-34.4 217zm181.5-559.1c26.4 81.4-18.4 169.4-99.8 195.8-81.5 26.4-169.4-18.3-195.9-99.8-26.5-81.4 18.4-169.4 99.8-195.9 81.6-26.4 169.4 18.4 195.9 99.9zm-475.7-529.8c375.7 0 682.1 306.4 682.1 682.1 0 247.5-133 464.8-331.2 584.3-115.3-2.1-232.3-3-350.9-3-118.7 0-235.6 1-350.9 3-198.2-119.6-331.2-336.9-331.2-584.3.1-375.7 306.5-682.1 682.1-682.1z" class="st10"/><path d="M3114.1 1130.8c91.1-98.5 157.9-266.6 128.4-366.4 187.9 160 145.7 462 63 537 41.2-17.1 163.6-132.5 169.5-132.4-2.5 220.4-169.3 361.4-308.8 428.2 33-148.4 20.9-318.9-47.6-457.5v-.2c-1.4-2.9-3-5.8-4.5-8.7" class="st9"/><path d="M3335.8 470.2C3278 590.5 3168.3 702.8 3036 794.5c-23.2 16.2-27.3 44.5-16.2 65.6l30.3 57.7c12.7 24 34 36.3 61.6 21.3 164.4-89.6 324.5-118.9 494.8-82 23.4 5.2 25.4 10 27.6-16.7C3643.7 719 3513 462 3408.9 382c-17.4-13.3-26.8-20.7-33.5 6.3-6.6 26.4 1.5 68.5 15.4 112.5 20.9 66.1 56.1 135.3 79.2 171h-.1c2.3 3.5 4.7 7 7 10.3 7.4 10.1 5.1 24.4-5 31.8-10.1 7.4-24.3 5.2-31.6-4.9-2.3-3.2-5.2-7.4-8.4-12.4l-.2-.1c-24.4-37.8-61.9-111.4-84.2-182.1-4.7-14.9-8.6-29.7-11.7-44.2" class="st9"/><path d="M4039.2 3956.3c44.1 0 80.7 5 110.1 15 29.4 10 52.9 24.3 70.6 43 17.7 18.7 30.2 41.4 37.5 68.1 7.3 26.7 11 56.4 11 89.1v310.3c-21.4 4.7-51.1 10.2-89.1 16.5-38 6.3-84.1 9.5-138.1 9.5-34 0-64.9-3-92.6-9-27.7-6-51.5-15.8-71.5-29.5s-35.4-31.5-46.1-53.5c-10.7-22-16-49-16-81.1 0-30.7 6.2-56.7 18.5-78.1 12.4-21.3 28.9-38.4 49.6-51 20.6-12.7 44.3-21.8 71-27.5 26.7-5.7 54.4-8.5 83.1-8.5 19.3 0 36.5.9 51.5 2.5 15 1.7 27.2 3.9 36.5 6.5v-14c0-25.4-7.6-45.7-23-61.1-15.4-15.3-42-23-80.1-23-25.4 0-50.4 1.8-75 5.5-24.7 3.7-46.1 8.8-64.1 15.5l-19.1-120.1c8.7-2.7 19.6-5.5 32.6-8.5s27.2-5.7 42.5-8 31.5-4.3 48.5-6c17.2-1.8 34.3-2.6 51.7-2.6m12 436.4c14.7 0 28.7-.3 42-1 13.4-.7 24.1-1.7 32-3v-113.1c-6-1.3-15-2.7-27-4-12-1.3-23-2-33.1-2-14 0-27.2.9-39.5 2.5-12.4 1.6-23.2 4.8-32.6 9.5-9.3 4.7-16.6 11-22 19-5.4 8-8 18-8 30 0 23.4 7.9 39.6 23.5 48.6 15.8 9 37.3 13.5 64.7 13.5zm-828-175.1c0-48.1-6.2-82.1-18.5-102.1-12.4-20-33.5-30-63.6-30-9.3 0-19 .5-29 1.5s-19.7 2.2-29 3.5v406.3H2934v-508.4c12.7-3.4 27.5-6.8 44.5-10.5s35-7 54.1-10c19-3 38.5-5.3 58.5-7 20.1-1.7 39.7-2.5 59.1-2.5 38 0 68.9 4.8 92.6 14.5 23.7 9.7 43.2 21.2 58.5 34.5 21.3-15.4 45.9-27.4 73.6-36 27.7-8.7 53.2-13 76.6-13 42 0 76.6 5.8 103.6 17.5s48.5 28.2 64.5 49.5c16 21.4 27 46.7 33.1 76.1 6 29.4 9 62.1 9 98.1v297.3h-149.1v-279.2c0-48.1-6.2-82.1-18.5-102.1-12.4-20-33.5-30-63.6-30-8 0-19.2 2-33.5 6s-26.2 9.1-35.5 15c4.7 15.4 7.6 31.5 9 48.5 1.4 17 2 35.2 2 54.6v287.2h-149.1v-279.3zm-601.7-37.1c-.7-12.7-2.8-25-6.5-37s-9.3-22.7-17-32c-7.6-9.4-17.3-17-29-23s-26.2-9-43.5-9c-16.7 0-31 2.8-43 8.5-12 5.6-22.1 13.2-30 22.5-8 9.3-14.2 20.2-18.5 32.5-4.3 12.4-7.5 24.8-9.5 37.5h197zm-350.4 57c0-46.7 7.2-87.6 21.6-122.6 14.3-35 33.2-64.2 56.5-87.6 23.4-23.4 50.2-41 80.6-53.1 30.3-12 61.6-18 93.6-18 74.7 0 133.8 22.9 177.2 68.5 43.3 45.7 65 112.9 65 201.7 0 8.7-.3 18.1-1 28.5-.6 10.4-1.4 19.6-2 27.5h-338.3c3.3 30.7 17.7 55.1 43 73.1 25.4 18 59.4 27 102.1 27 27.4 0 54.2-2.5 80.6-7.5 26.3-5 47.8-11.2 64.5-18.5l20 121.1c-8 4-18.7 8-32 12-13.4 4-28.2 7.5-44.5 10.5-16.4 3-33.9 5.5-52.6 7.5-18.7 2-37.4 3-56.1 3-47.4 0-88.5-7-123.6-21-35-14-64.1-33.2-87.1-57.5-23-24.4-40-53.2-51-86.6-10.9-33.2-16.5-69.3-16.5-108zm-617.7-249.1c25.4-7.4 58-14.2 98.1-20.5 40-6.3 82.1-9.5 126.1-9.5 44.7 0 81.9 5.8 111.6 17.5 29.7 11.7 53.3 28.2 70.6 49.5 17.3 21.4 29.7 46.7 37 76.1 7.3 29.4 11 62.1 11 98.1v297.3h-149.1v-279.2c0-48.1-6.3-82.1-19-102.1s-36.4-30-71.1-30c-10.7 0-22 .5-34 1.5s-22.7 2.2-32.1 3.5v406.3h-149.1v-508.5zM1474 3818.2c0 27.4-8.9 48.9-26.5 64.5-17.7 15.7-38.5 23.5-62.5 23.5-24.1 0-44.9-7.9-62.6-23.5-17.7-15.7-26.5-37.2-26.5-64.5 0-27.4 8.8-48.9 26.5-64.6 17.7-15.7 38.5-23.5 62.6-23.5 24 0 44.9 7.9 62.5 23.5 17.6 15.7 26.5 37.2 26.5 64.6zm-14 678.6h-149.1v-526.5H1460v526.5zm-727.9-263.3c0-38 6.2-73.9 18.5-107.6 12.4-33.7 30.2-63.1 53.5-88.1 23.4-25 51.7-44.9 85.1-59.6 33.4-14.7 71.4-22 114.1-22 28 0 53.7 2.5 77 7.5 23.4 5 46.1 12.2 68.1 21.5l-31 119.1c-14-5.4-29.3-10-46-14s-35.4-6-56-6c-44.1 0-76.9 13.7-98.6 41-21.7 27.4-32.5 63.4-32.5 108.1 0 47.4 10.1 84.1 30.5 110.1s55.9 39 106.6 39c18 0 37.4-1.6 58.1-5 20.6-3.3 39.7-8.7 57.1-16l21 122.1c-17.3 7.4-39 13.7-65 19-26 5.4-54.7 8-86.1 8-48.1 0-89.4-7.2-124.1-21.5-34.7-14.4-63.2-33.9-85.6-58.6-22.3-24.7-38.7-53.9-49-87.6-10.5-33.4-15.7-70-15.7-109.4zM3744.9 4900.1c6.6 0 12-.5 16.4-1.6 4.3-1.1 7.7-2.6 10.3-4.5 2.6-1.9 4.4-4.1 5.4-6.7 1-2.6 1.5-5.5 1.5-8.7 0-6.8-3.2-12.5-9.6-16.9-6.3-4.5-17.3-9.3-32.9-14.5-6.8-2.4-13.6-5.2-20.4-8.2-6.8-3.1-12.9-7-18.3-11.7-5.4-4.7-9.8-10.4-13.2-17.1-3.4-6.7-5.1-14.8-5.1-24.4 0-9.6 1.8-18.2 5.4-25.9 3.6-7.6 8.7-14.2 15.2-19.6 6.6-5.4 14.6-9.5 24-12.5 9.4-2.9 20-4.3 31.7-4.3 14 0 26 1.5 36.2 4.5 10.2 3 18.6 6.3 25.1 9.9l-13.4 36.8c-5.8-3-12.2-5.6-19.3-8-7.1-2.3-15.6-3.4-25.6-3.4-11.2 0-19.2 1.5-24.1 4.7-4.9 3.1-7.3 7.8-7.3 14.2 0 3.8.9 7 2.7 9.6 1.8 2.6 4.3 4.9 7.6 7 3.3 2.1 7 4 11.3 5.7 4.3 1.7 9.1 3.4 14.3 5.2 10.8 4 20.2 8 28.1 11.8 8 3.9 14.6 8.5 19.9 13.7 5.3 5.1 9.2 11.3 11.8 18.3 2.5 7 3.9 15.4 3.9 25.4 0 19.4-6.8 34.4-20.4 45.1-13.6 10.7-34 16-61.4 16-9.2 0-17.5-.5-24.8-1.6-7.4-1.1-13.9-2.4-19.6-4.1-5.7-1.6-10.6-3.3-14.6-5.1-4.1-1.8-7.6-3.5-10.3-5.1l13.2-37.1c6.2 3.4 13.8 6.5 22.9 9.2 9.2 2.6 20.3 3.9 33.4 3.9m-195.5 35.6c-13.3-23.7-27.8-47.2-43.4-70.3-15.6-23.2-32.1-45-49.7-65.6v135.9h-46.1v-207.4h38c6.6 6.6 13.9 14.6 21.9 24.2 8 9.6 16.1 19.8 24.4 30.7 8.2 10.9 16.5 22.2 24.6 33.8 8.2 11.7 15.9 22.9 23.1 33.7v-122.4h46.4v207.4h-39.2zm-229.9-103.8c0 17.8-2.7 33.4-7.9 46.9-5.3 13.4-12.6 24.7-21.7 33.8-9.2 9-20.1 15.9-32.8 20.5-12.7 4.6-26.3 6.9-40.8 6.9-14.2 0-27.5-2.3-40.1-6.9-12.6-4.6-23.6-11.4-32.9-20.5-9.4-9.1-16.8-20.4-22.2-33.8-5.4-13.5-8-29.1-8-46.9 0-17.8 2.8-33.4 8.4-46.9 5.6-13.4 13.1-24.8 22.6-34 9.5-9.2 20.5-16 32.9-20.6 12.5-4.6 25.6-6.9 39.3-6.9 14.2 0 27.5 2.3 40.1 6.9 12.6 4.6 23.6 11.5 32.9 20.6 9.4 9.2 16.7 20.5 22.2 34 5.3 13.5 8 29.1 8 46.9zm-158.3 0c0 10.2 1.2 19.4 3.7 27.5 2.5 8.2 6.1 15.2 10.8 21.1 4.7 5.9 10.4 10.4 17.2 13.6 6.8 3.2 14.6 4.8 23.4 4.8 8.6 0 16.3-1.6 23.2-4.8 6.9-3.2 12.7-7.8 17.4-13.6 4.7-5.9 8.2-13 10.7-21.1 2.5-8.2 3.8-17.3 3.8-27.5s-1.2-19.4-3.8-27.7c-2.5-8.3-6.1-15.4-10.7-21.2-4.7-5.9-10.5-10.5-17.4-13.7-6.9-3.1-14.6-4.8-23.2-4.8-8.8 0-16.6 1.6-23.4 4.9-6.8 3.3-12.5 7.9-17.2 13.8-4.7 5.9-8.3 13-10.8 21.3-2.5 8.2-3.7 17.4-3.7 27.4zm-185.7-103.6h46.7v207.4h-46.7v-207.4zm-81.8 0v39.8h-62.5v167.7h-46.7v-167.7H2722v-39.8h171.7zm-305 211.6c-33.7 0-59.4-9.4-77-28.1-17.7-18.7-26.5-45.4-26.5-79.9 0-17.2 2.7-32.5 8.1-45.9 5.4-13.4 12.8-24.9 22.2-34.1 9.4-9.3 20.5-16.3 33.5-21.1 12.9-4.8 27-7.2 42.2-7.2 8.8 0 16.8.7 24 2 7.2 1.3 13.4 2.8 18.9 4.5 5.4 1.7 9.9 3.5 13.4 5.3 3.6 1.8 6.2 3.2 7.8 4.2l-13.5 37.7c-6.4-3.4-13.8-6.3-22.3-8.7-8.5-2.4-18.1-3.6-28.9-3.6-7.2 0-14.2 1.2-21.1 3.6-6.9 2.4-13 6.2-18.3 11.5-5.3 5.3-9.5 12.1-12.7 20.5-3.2 8.4-4.8 18.5-4.8 30.5 0 9.6 1 18.5 3.1 26.8s5.5 15.4 10.2 21.4c4.7 6 10.8 10.7 18.4 14.2 7.5 3.5 16.7 5.3 27.5 5.3 6.8 0 12.8-.4 18.3-1.2 5.4-.8 10.2-1.7 14.4-2.9 4.2-1.1 7.9-2.3 11.1-3.7 3.2-1.4 6.1-2.7 8.7-3.9l12.9 37.4c-6.6 4-15.9 7.6-27.9 10.8-12.1 3-26 4.6-41.7 4.6zm-276.9 0c-14.6 0-27.2-2.1-37.7-6.1-10.6-4.1-19.4-9.8-26.2-17.1-6.9-7.3-12-15.9-15.3-26.1-3.3-10.1-4.9-21.2-4.9-33.3v-129h46.7v125.1c0 8.3.9 15.5 2.9 21.4 1.9 5.9 4.4 10.7 7.8 14.4 3.3 3.7 7.3 6.3 12 7.9 4.7 1.6 9.9 2.4 15.4 2.4 11.4 0 20.6-3.5 27.7-10.5 7.1-7 10.6-18.9 10.6-35.6v-125.1h46.7v129c0 12.1-1.7 23.3-5.1 33.5-3.4 10.2-8.6 18.9-15.6 26.2-7 7.3-15.8 12.9-26.6 16.9-10.9 4-23.7 6-38.4 6zm-171.9-108c0 17.9-2.8 33.6-8.4 47-5.6 13.4-13.6 24.4-23.8 33.3-10.3 8.8-22.8 15.3-37.5 19.7-14.8 4.4-31.4 6.6-49.7 6.6-8.4 0-18.2-.3-29.4-1s-22.1-2.1-32.9-4.3V4731c10.8-1.9 22.1-3.3 33.7-4 11.6-.7 21.7-1.1 30.1-1.1 17.8 0 33.9 2 48.3 6 14.5 4 26.9 10.2 37.3 18.9 10.4 8.6 18.4 19.6 24 32.9 5.5 13.3 8.3 29.4 8.3 48.2zm-135 65.8c2.2.2 4.8.4 7.6.5 2.9.1 6.3.1 10.4.1 23.3 0 40.6-5.9 51.9-17.7 11.3-11.8 16.9-28 16.9-48.8 0-21.8-5.4-38.2-16.1-49.4-10.8-11.2-27.9-16.7-51.2-16.7-3.2 0-6.4.1-9.9.2-3.4.1-6.6.3-9.6.8v131zm-137.4-65.8c0 17.8-2.7 33.4-8 46.9-5.3 13.4-12.5 24.7-21.7 33.8-9.2 9-20.1 15.9-32.8 20.5-12.7 4.6-26.3 6.9-40.9 6.9-14.2 0-27.5-2.3-40.1-6.9-12.6-4.6-23.6-11.4-32.9-20.5-9.4-9.1-16.7-20.4-22.2-33.8-5.4-13.5-8.1-29.1-8.1-46.9 0-17.8 2.8-33.4 8.4-46.9 5.6-13.4 13.1-24.8 22.6-34 9.5-9.2 20.5-16 32.9-20.6 12.5-4.6 25.6-6.9 39.3-6.9 14.1 0 27.5 2.3 40.1 6.9 12.6 4.6 23.6 11.5 32.9 20.6 9.4 9.2 16.7 20.5 22.2 34 5.6 13.5 8.3 29.1 8.3 46.9zm-158.4 0c0 10.2 1.2 19.4 3.7 27.5 2.5 8.2 6.1 15.2 10.8 21.1 4.7 5.9 10.4 10.4 17.2 13.6 6.8 3.2 14.6 4.8 23.4 4.8 8.6 0 16.3-1.6 23.2-4.8 6.9-3.2 12.7-7.8 17.4-13.6 4.7-5.9 8.2-13 10.7-21.1 2.5-8.2 3.8-17.3 3.8-27.5s-1.2-19.4-3.8-27.7c-2.5-8.3-6.1-15.4-10.7-21.2-4.7-5.9-10.5-10.5-17.4-13.7-6.9-3.1-14.6-4.8-23.2-4.8-8.8 0-16.6 1.6-23.4 4.9-6.8 3.3-12.5 7.9-17.2 13.8-4.7 5.9-8.3 13-10.8 21.3-2.4 8.2-3.7 17.4-3.7 27.4zm-227.2-66.2c-3.4 0-6.5.1-9.2.3-2.7.2-5.2.4-7.6.6v56.3h13.2c17.6 0 30.1-2.2 37.7-6.6 7.6-4.4 11.4-11.9 11.4-22.5 0-10.1-3.8-17.4-11.5-21.7-7.7-4.2-19.1-6.4-34-6.4zm-2.7-39.8c31.1 0 55 5.6 71.5 16.6 16.6 11.1 24.9 28.3 24.9 51.6 0 14.6-3.4 26.4-10.1 35.5-6.7 9.1-16.3 16.2-28.8 21.4 4.2 5.2 8.6 11.2 13.2 17.8 4.6 6.7 9.1 13.7 13.6 21 4.5 7.3 8.8 14.8 13 22.8 4.2 7.9 8.1 15.6 11.7 23.2h-52.4c-3.8-6.8-7.6-13.7-11.5-20.7-3.9-7-7.9-13.8-12-20.4-4.1-6.6-8.1-12.8-12.1-18.7-4-5.9-8-11.2-12-16h-23.1v75.8h-46.7v-204.5c10.2-2 20.7-3.4 31.6-4.2 10.9-.8 20.5-1.2 29.2-1.2zm-240.1 39.8c-3.4 0-6.8.1-10 .3-3.3.2-6.2.4-8.6.6v59.9h14.7c16.2 0 28.3-2.2 36.5-6.6 8.2-4.4 12.2-12.6 12.2-24.5 0-5.8-1-10.6-3.1-14.4-2.1-3.8-5.1-6.8-9-9.2-3.8-2.3-8.6-3.8-14.2-4.8-5.6-.9-11.7-1.3-18.5-1.3zm-3.1-39.8c30.9 0 54.7 5.5 71.3 16.3 16.6 10.9 24.9 28.7 24.9 53.4 0 25-8.4 43-25.2 54.1-16.8 11.1-40.7 16.6-71.8 16.6h-14.7v69.5h-46.7v-204.5c10.2-2 21-3.4 32.3-4.2 11.4-.8 21.4-1.2 29.9-1.2z" class="st10"/></svg>