<svg xmlns="http://www.w3.org/2000/svg" xml:space="preserve" style="enable-background:new 0 0 150 150" viewBox="0 0 150 150"><path d="M61.4 46.8c-3.3-3.3-7.8-5.3-12.8-5.3-5 0-9.5 2-12.8 5.3-3.3 3.3-5.3 7.8-5.3 12.8 0 5 2 9.5 5.3 12.8 3.3 3.3 7.8 5.3 12.8 5.3 5 0 9.5-2 12.8-5.3 3.3-3.3 5.3-7.8 5.3-12.8 0-5-2-9.5-5.3-12.8m52.7 0c-3.3-3.3-7.8-5.3-12.8-5.3-5 0-9.5 2-12.8 5.3-3.3 3.3-5.3 7.8-5.3 12.8 0 5 2 9.5 5.3 12.8 3.3 3.3 7.8 5.3 12.8 5.3 5 0 9.5-2 12.8-5.3 3.3-3.3 5.3-7.8 5.3-12.8 0-5-2-9.5-5.3-12.8zm-65.4-9.5c6.1 0 11.7 2.5 15.7 6.5 3.1 3.1 5.3 7.1 6.1 11.6 1.4-.7 2.9-1.1 4.4-1.1 1.6 0 3.1.4 4.4 1.1.8-4.5 3-8.5 6.1-11.6 4-4 9.6-6.5 15.7-6.5s11.7 2.5 15.7 6.5 6.5 9.6 6.5 15.7-2.5 11.7-6.5 15.7-9.6 6.5-15.7 6.5-11.7-2.5-15.7-6.5c-3.9-3.9-6.3-9.2-6.5-15-.4-.5-1-.9-1.6-1.2-.8-.4-1.6-.6-2.5-.6-.9 0-1.8.2-2.5.6-.6.3-1.1.7-1.6 1.2-.2 5.9-2.6 11.1-6.5 15-4 4-9.6 6.5-15.7 6.5s-11.7-2.5-15.7-6.5-6.5-9.6-6.5-15.7 2.5-11.7 6.5-15.7c4.1-4 9.7-6.5 15.9-6.5z" style="fill:#e1111b"/><path d="M97.6 45.5c2.3-.6 4.7.7 5.3 3 .6 2.3-.7 4.7-3 5.3-2.3.6-4.7-.7-5.3-3-.7-2.3.7-4.7 3-5.3m14.1 3.8c1.7 1.7 1.7 4.4 0 6.1-1.7 1.7-4.4 1.7-6.1 0-1.7-1.7-1.7-4.4 0-6.1 1.7-1.7 4.4-1.7 6.1 0zm3.8 14.1c-.6 2.3-3 3.7-5.3 3-2.3-.6-3.7-3-3-5.3.6-2.3 3-3.7 5.3-3 2.3.6 3.6 3 3 5.3zm-10.4 10.4c-2.3.6-4.7-.7-5.3-3-.6-2.3.7-4.7 3-5.3 2.3-.6 4.7.7 5.3 3 .7 2.3-.7 4.6-3 5.3zM91 70c-1.7-1.7-1.7-4.4 0-6.1 1.7-1.7 4.4-1.7 6.1 0 1.7 1.7 1.7 4.4 0 6.1-1.7 1.7-4.4 1.7-6.1 0zm-3.8-14.2c.6-2.3 3-3.7 5.3-3 2.3.6 3.7 3 3 5.3-.6 2.3-3 3.7-5.3 3-2.2-.6-3.6-3-3-5.3zm-48.9-6.5c1.7-1.7 4.4-1.7 6.1 0 1.7 1.7 1.7 4.4 0 6.1-1.7 1.7-4.4 1.7-6.1 0-1.7-1.7-1.7-4.5 0-6.1zm14.1-3.8c2.3.6 3.7 3 3 5.3-.6 2.3-3 3.7-5.3 3-2.3-.6-3.7-3-3-5.3.7-2.3 3-3.6 5.3-3zm10.4 10.3c.6 2.3-.7 4.7-3 5.3-2.3.6-4.7-.7-5.3-3-.6-2.3.7-4.7 3-5.3 2.3-.6 4.7.7 5.3 3zM59 70c-1.7 1.7-4.4 1.7-6.1 0-1.7-1.7-1.7-4.4 0-6.1 1.7-1.7 4.4-1.7 6.1 0 1.7 1.7 1.7 4.4 0 6.1zm-14.1 3.8c-2.3-.6-3.7-3-3-5.3.6-2.3 3-3.7 5.3-3 2.3.6 3.7 3 3 5.3-.7 2.2-3 3.6-5.3 3zM34.5 63.4c-.6-2.3.7-4.7 3-5.3 2.3-.6 4.7.7 5.3 3 .6 2.3-.7 4.7-3 5.3-2.3.7-4.7-.7-5.3-3zm12.3-5.7c1-1 2.7-1 3.7 0s1 2.7 0 3.7-2.7 1-3.7 0c-1-.9-1-2.6 0-3.7zm53.9-.6c1.4-.4 2.9.5 3.2 1.9.4 1.4-.5 2.9-1.9 3.2-1.4.4-2.9-.5-3.2-1.9-.4-1.4.5-2.9 1.9-3.2z" style="fill-rule:evenodd;clip-rule:evenodd;fill:#8e8e8e"/><path d="M133.4 95.8h4.4v-.1c0-1.4-.7-2.2-2.2-2.2-1.3.1-2.1.8-2.2 2.3m2.3-4.3c3.2 0 4.7 1.6 4.7 4.8 0 .4 0 .9-.1 1.3h-6.9c0 1.5 1.1 2.2 3.2 2.2 1.1 0 2.1-.1 3.1-.3v2.1c-.9.2-2 .3-3.3.3-3.8 0-5.7-1.8-5.7-5.3.1-3.4 1.7-5.1 5-5.1zm-6.9 0v10.4h-2.6V91.5h2.6zm0-3.7v2.1h-2.6v-2.1h2.6zm-14.5 3.7h2.8l2.5 7.3 2.6-7.3h2.8l-4.2 10.4h-2.5l-4-10.4zm-11.1 5.2c0-3.5 1.7-5.2 5.1-5.2 3.4 0 5.1 1.7 5.1 5.2s-1.7 5.2-5.1 5.2c-3.4 0-5.1-1.7-5.1-5.2zm2.6 0c0 2.2.8 3.3 2.5 3.3s2.5-1.1 2.5-3.3c0-2.1-.8-3.2-2.5-3.2-1.6 0-2.5 1.1-2.5 3.2zm-19.6 5.2V87.8h2.7l4.8 10.7 4.7-10.7h2.6V102h-2.4v-9.9l-3.8 9.9h-2.2l-3.9-9.9v9.9h-2.5zm-14.9-.5v-2.2c1.2.5 2.5.7 4 .7 1.1 0 1.7-.4 1.7-1.1 0-.7-.4-1-1.1-1H74c-2.1 0-3.2-1-3.2-3.1 0-2.2 1.5-3.3 4.6-3.3 1.3 0 2.5.2 3.7.6v2.2c-1.2-.5-2.4-.7-3.8-.7s-2.1.4-2.1 1.1c0 .7.4 1 1.2 1h1.7c2.3 0 3.5 1 3.5 3.1 0 2.2-1.5 3.3-4.4 3.3-1.4 0-2.7-.2-3.9-.6zm-8.9-5.6h4.4v-.1c0-1.4-.7-2.2-2.2-2.2-1.4.1-2.1.8-2.2 2.3zm2.2-4.3c3.2 0 4.7 1.6 4.7 4.8 0 .4 0 .9-.1 1.3h-6.9c0 1.5 1.1 2.2 3.2 2.2 1.1 0 2.1-.1 3.1-.3v2.1c-.9.2-2 .3-3.3.3-3.8 0-5.7-1.8-5.7-5.3.1-3.4 1.8-5.1 5-5.1zm-14.5 9.9v-2.2c1.2.5 2.5.7 4 .7 1.1 0 1.7-.4 1.7-1.1 0-.7-.4-1-1.1-1h-1.9c-2.1 0-3.2-1-3.2-3.1 0-2.2 1.5-3.3 4.6-3.3 1.3 0 2.5.2 3.7.6v2.2c-1.2-.5-2.4-.7-3.8-.7s-2.1.4-2.1 1.1c0 .7.4 1 1.2 1h1.7c2.3 0 3.5 1 3.5 3.1 0 2.2-1.5 3.3-4.4 3.3-1.5 0-2.8-.2-3.9-.6zm-10.2 0v-2.2c1.2.5 2.5.7 4 .7 1.1 0 1.7-.4 1.7-1.1 0-.7-.4-1-1.1-1h-1.9c-2.1 0-3.2-1-3.2-3.1 0-2.2 1.5-3.3 4.6-3.3 1.3 0 2.5.2 3.7.6v2.2c-1.2-.5-2.4-.7-3.8-.7s-2.1.4-2.1 1.1c0 .7.4 1 1.2 1h1.7c2.3 0 3.5 1 3.5 3.1 0 2.2-1.5 3.3-4.4 3.3-1.4 0-2.7-.2-3.9-.6zm-5-3.8c-.7-.1-1.4-.2-2.1-.2-1.3 0-1.9.4-1.9 1.3s.5 1.4 1.6 1.4c.9 0 1.7-.3 2.4-.8v-1.7zm-6.7 1.1c0-2.1 1.5-3.1 4.5-3.1.7 0 1.4.1 2.1.2V95c0-.9-.7-1.4-2-1.4-1.1 0-2.4.2-3.8.5V92c1.4-.3 2.6-.5 3.8-.5 3.1 0 4.6 1.1 4.6 3.4v7H36l-1-.9c-.9.6-1.9.9-3 .9-2.5 0-3.8-1.1-3.8-3.2zm-2-10.9V102h-2.6V87.8h2.6zm-4.8 13.5c-1.1.5-2.6.8-4.3.8-5 0-7.5-2.5-7.5-7.4 0-4.7 2.5-7 7.6-7 1.6 0 2.9.2 4.2.7v2.4c-1.2-.5-2.5-.8-4-.8-3.4 0-5.1 1.6-5.1 4.7 0 3.4 1.6 5.1 4.8 5.1.5 0 1-.1 1.6-.2v-4.1h2.6v5.8z" style="fill:#a0a0a0"/></svg>