<svg xmlns="http://www.w3.org/2000/svg" xml:space="preserve" style="enable-background:new 0 0 5000 5000" viewBox="0 0 5000 5000"><path d="M3591.5 4049.3c.3-6.8 1-11.9 2.1-15.5 1.2-3.6 3.2-6 5.9-7.3 2.8-1.3 6.2-1.7 10.4-1.3 4.3.4 7.4 7.5 9.5 21.4 8.9-1.7 16.6-4.1 23-7.5 6.5-3.2 12.6-6.4 18.4-9.4 5.8-3 12.7-6.2 20.5-9.5 7.8-3.4 15.1-7.2 21.9-11.2 6.8-4.1 11.9-8.1 15.2-12.1 3.4-3.9 5.9-7.9 7.7-12 1.7-4.1 4.5-6.6 8.5-7.5 4.8.1 8.2 1 10.4 2.8 2.3 1.9 3.6 6.2 4.1 13-.1 2.9-.9 5.8-2.2 8.6-1.3 2.8-4 6.3-8.3 10.3-4.2 3.9-8.8 7.2-13.6 9.6-4.8 2.6-10.2 5.5-16.1 9.2-5.9 3.6-11.7 8.4-17.6 14.5-5.9 6.1-10.1 11.9-12.7 17.5-2.7 5.7-5.3 10.8-8 15.4-2.8 4.6-7 8.4-12.6 11.3-5.6 2.9-14.2 4.7-26 5.4-7.8-.1-13.9-1.2-18.4-3-4.5-1.8-9.1-7.2-14-16-4.6-8.9-7.4-17.8-8.1-26.7m31.9 14.2c2.3 6.1 6.4 8.8 12.4 7.8 6-1 11.5-3 16.5-6.3 5.1-3.2 10.2-8 15.4-14.3 5.2-6.5 7.4-10.8 6.8-13.2-12.5 9.2-22.3 15.1-29.5 18.1-7 3-14.2 5.6-21.6 7.9zm-323.3-2.8c0-11 1.4-19.5 4.1-25.4 2.8-5.9 7.2-12.1 13.5-18.4 6.2-6.3 12.4-11.9 18.7-16.5 6.3-4.7 12.6-7.8 19.2-9.5l7.3-.3c6.6.2 12.2 2 17.1 5.4 4.9 3.4 7 9.4 6.3 17.9-.8 8.6-5 15.9-12.7 22.3-7.7 6.2-16.5 10.7-26.2 13.5-9.7 2.7-15 5.2-15.7 7.4-.8 2.3.8 4.7 4.7 7.4 3.9 2.7 12.7 4.3 26.3 5 13.7.8 24.8 0 33.5-2.2s15.7-4.6 21.1-7.1c5.4-2.6 9.6-4.3 12.7-5.2 3-.8 5.5.8 7.4 4.8-5.5 7.9-11.5 13.6-18.1 17.3-6.6 3.7-14.8 7.1-24.6 10.1-9.9 3-21.9 4.8-36 5.4h-8.6c-15.5-1.5-25.9-3.6-31.3-6.2-5.4-2.7-9.5-5.7-12.5-9.4-2.8-3.7-5-9.2-6.2-16.3zm27.9-21c13-4.2 21.6-8.2 25.9-12 4.3-3.9 6.1-7.4 5.5-10.4-.6-3.2-4.2-3.2-10.8.3-6.5 3.4-11 6.8-13.5 10.3-2.3 3.4-4.8 7.4-7.1 11.8zm-353.3 19c13.9-7.8 28.4-19.7 43.3-35.7 14.9-16 26.4-25.5 34.7-28.6 8.3-3 17.4-4.6 27.3-4.6 3.8.2 7.1 1 9.8 2.6 2.8 1.4 4.5 3.9 5.1 7.5.7 3.4.5 7.2-.3 11.5s-3.4 9.4-7.6 15.5c-4.3 6-9.2 11.1-15.1 15.2-5.8 4.1-9.8 7.8-12 11.2-2.2 3.4-2.4 6.7-.5 10s9.3 3.6 22.1 1c12.8-2.7 22.3-5.1 28.4-7.4 6.1-2.2 12.7-4.9 19.7-8.1l3.7 14.3c-15.4 7.2-29.2 13.4-41.3 18.4-12 5-24.7 8.5-38 10.2-8.9 0-15.7-.4-20.3-1.2-4.7-.7-8.9-2.6-12.8-5.9-3.9-3.2-6.3-7.1-7.3-11.7-1-4.7-.2-9.2 2.4-13.7 2.5-4.5 6.3-8.6 11.4-12.6 5.1-4.1 10.4-7.3 16.2-9.7 5.7-2.5 10.6-5.8 14.7-10.2 4.1-4.5 5.2-7.9 3-10.2-2.1-2.3-5.2-3-9.2-2.1-4.1 1-13.5 9-28.6 23.9-15 15.1-30.1 25.7-45.1 32.1l-3.7-11.7zm-352-11.6c15.9-15.1 28.2-26.7 36.8-35.1 8.7-8.4 15.2-14.2 19.5-17.3 4.4-3.2 8.2-5.2 11.5-6.1 3.9.6 6.6 1.4 8.3 2.3 1.7.8 3.7 2.8 6.2 6 2.4 3.2 1.9 8.4-1.6 15.6-3.5 7.2-9 13.2-16.6 18.1-7.7 4.9-14.2 9.2-19.5 12.8-5.4 3.7-10.2 7.4-14.5 10.9-4.2 3.6-6.1 7-5.7 10.1.4 3.1 3 4.6 7.7 4.6 4.8 0 10.9-1.4 18.6-4.1 7.6-2.8 17.3-7.3 29-13.5s22.4-11.4 32-15.5c9.7-4.1 17.3-7.7 23-10.8 5.7-3 9.9-7 12.7-11.9 2.8-4.8 5.9-8.2 9.5-9.9 3.5-1.7 6.4-.8 8.7 2.6 2.2 3.4 2.8 8.7 1.5 16-1.1 7.4-3.8 12.9-7.9 16.6-4.1 3.9-8.2 7.6-12.5 11.5-4.2 3.8-6.7 7.1-7.3 9.8-.6 2.8.1 6.1 2.1 10.1 2 3.9 10.3 4.4 24.8 1.4 14.4-3 25-6 31.6-9 6.5-3.1 15.1-5.7 26-7.9l5.4 6.4c-1.9 4.7-7.5 9.2-16.5 13.8-9.2 4.5-21.5 8.7-37.3 12.5-15.8 3.7-29.3 5.7-40.5 5.7-11.4 0-19.5-1.3-24.1-4-4.7-2.6-7.3-6.3-8.1-11.1-.8-4.8 3.2-13.2 11.9-25.2-13.7 7.7-25.7 13.6-35.7 18.1-10 4.4-20.1 8.7-29.9 12.8-10 4.2-20.4 6.8-31.4 7.8-3 .1-5.9.3-8.6.3-7.2 0-13.1-.9-17.7-2.8-6.6-2.8-9.9-7.4-10.1-13.7-.3 0-.4-.1-.4-.3.1-6.2 6.5-15.4 19.1-27.6zm-272.9 8.6c2.1-5.7 5-11.8 8.7-18.1 3.7-6.3 12.3-15.5 25.6-27.6 13.4-12.1 23.1-22.9 29.5-32.4-9.7 1.3-16.2 2-19.6 2.1-3.3.1-5.2-1.9-5.8-5.9-.6-4.1.3-7 2.8-8.9 2.6-1.9 7.5-3.3 15-4.3 7.4-.9 15.1-2.1 23.1-3.6 14.2-13.3 25.7-24 34.8-32 9-8.1 18.6-16.7 28.9-26 10.3-9.4 20-17.2 29.2-23.4 9.2-6.2 17.2-9.5 23.9-9.7 4.1 5.3.3 13-11.2 23.3-11.5 10.2-20.7 18.7-27.5 25.5l-19.5 19.5c-6.3 6.3-13.5 13.7-21.5 22.4 10.3-1.2 25.9-3 46.5-5.4 20.6-2.3 41.7-4.5 63.3-6.6 21.6-1.9 43.3-3.7 65.2-5.2 22-1.5 43.4-2.5 64.4-2.8 21.1-.4 43-.4 65.7.1 22.8.5 41.3 1.4 55.5 2.8 14.3 1.4 25.7 5.8 34.1 13.2-8.6 2.7-16.6 3.7-23.8 2.7-7.2-.9-14.9-1.7-23.2-2.2-8.2-.6-18.1-.6-29.7-.4-11.5.4-25.5.8-41.9 1.3-16.4.6-33.9.9-52.6 1.2-18.6.1-37.5 1.1-56.6 2.7-19.2 1.6-37.3 3.3-54.6 5.1-17.2 1.8-35.2 3.4-53.8 5-18.6 1.5-31.9 2.5-39.7 3-7.8.5-14.2 1.1-19.4 1.7-5.1.7-9.3 1.8-12.5 3.4-3.3 1.5-6.8 3.9-10.5 7.2-3.7 3.2-8.3 7.5-13.8 13.1-5.5 5.7-12 12.9-19.5 21.9-7.5 9-14.2 16.8-20 23.2-5.8 6.4-10.1 12.4-12.5 18.1-2.6 5.6-2.9 10.6-1 15 1.9 4.3 5.5 6.9 10.8 7.9 5.3 1 15.4-1.2 30.5-6.3 15-5.2 25.7-9.8 32-13.8 6.4-4 11.2-6.6 14.5-7.6 3.3-1 5.8-.4 7.7 2 1.7 2.4-.8 6.6-7.9 12.6-7 5.9-13.2 10.4-18.7 13.7-5.5 3.1-11.7 6.1-18.8 8.9-7.1 2.7-15.2 4.8-24 6-5.7.8-11.2 1.3-16.2 1.3-3.2 0-6.3-.1-9.2-.3-8-.9-14.3-2.7-18.8-5.5-4.6-2.9-7.6-6.7-9.1-11.4-1.7-4.2-2.5-8-2.5-11.4 0-.3.1-.5.3-1 .3-3.8 1.3-8.5 3.4-14.1zm-167-58c1 2 .7 4.1-.6 6.3s-3.4 4.5-6.1 6.6c-2.6 2.3-4.1 5-4.6 8.3-.5 3.3-2.5 5.2-6.1 5.7-3.5.5-7.5.1-11.7-1.5-4.2-1.4-7.8-2-10.9-1.6-3.1.5-6.6 3-10.6 7.5s-7.6 8.9-10.6 13-5.3 8.2-6.7 12.3c-1.3 4.2-1 7.9 1 11.3 2.1 3.4 4.9 5.6 8.6 6.6 3.7 1.1 9.2 1.2 16.4.5 7.2-.7 14.5-2.2 21.9-4.4 7.4-2.3 14.7-4.6 21.8-7.2 7-2.5 12.2-4.6 15.3-6.4 3.2-1.8 6.1-.3 8.9 4.6-.8 4.7-2.8 7.9-5.9 9.5-3 1.7-7.2 3.8-12.6 6.4-5.4 2.5-11.1 4.7-17.1 6.6-6.1 1.9-12.8 3.9-20.2 5.7-7.4 1.7-15.5 3-24.1 3.9h-6.7c-4-.4-7.9-1-11.7-1.7-3.8-.8-7.5-2.7-11.4-5.6-3.9-2.9-7.1-7.4-9.9-13.6l-.6-6.1c.4-5.9 2.2-12.1 5.4-18.4 3.2-6.3 7.3-12.4 12.3-18.3 5.1-5.9 10.8-11 17.2-15.2 6.3-4.2 11.9-7.4 16.9-9.4 5-2 8.3-3.8 9.9-5.4 1.6-1.6 4.6-3.2 8.9-4.8 4.3-1.6 8.3-2.4 11.9-2.4 2.9.2 5.4.9 7.4 2.2 1.9 1.4 3.4 3 4.3 5zm-213.8-90.8-5.7-1.6c-5.7-6.6-10.1-11.4-13-14.3 2.7-5.9 8-11.2 15.9-15.9l6-.3c5.1 2.3 7.7 5.4 7.9 9.2.2 3.8 2.8 7.4 7.9 10.8l-2.3 5.4c-4.9 3.2-10.5 5.5-16.7 6.7zm-191.5 152c17.1-7.9 29.6-17 37.5-27.2 7.8-10.2 16.8-17.5 26.8-22.1 10.2-4.5 18.3-9.2 24.4-14.2 6.1-5 12.1-6.7 17.6-5 5.7 1.5 8.5 5.1 8.3 10.6-.1 5.5-3.3 10.2-9.5 13.9-6.3 3.9-10.9 7.9-14 12.2-3 4.4-5.5 9.2-7.5 14.5-1.9 5.3-1.9 10.6-.1 15.9 1.9 5.3 5.2 8.7 10.3 10.3 5.1 1.6 13 2.3 23.8 2.2 10.8-.1 20.3-1.2 28.4-3.4 8.1-2.1 15.3-5 21.4-8.6 6.1-3.7 11.3-5.1 15.5-4l1.9 7.6c-2.7 4.4-6.7 8.2-11.9 11.2-5.2 3.1-10.3 5.7-15.4 7.9-5.1 2.1-12.4 4.1-21.8 6.3-9.4 2.1-20.1 3.9-32.2 5.4l-13.3.6c-10.8-1.2-18.6-3.3-23.5-6.2-4.8-2.8-8.8-6.7-11.9-11.5-3-4.9-4.7-9.8-4.9-14.6-.3-4.9.4-9.8 1.7-14.6 1.4-4.8-.1-4.6-4.3.4-4.3 5.1-10.2 9.8-17.7 14.2-7.5 4.3-13.9 7.7-19 10.4-5.1 2.5-8.7-1.5-10.6-12.2zm-416.9-75.5c11-10.6 20.6-19.4 28.7-26.2 8.2-6.8 17.5-13.9 28.1-21.3 10.6-7.4 23-15.8 37.3-25.4 14.3-9.5 25.4-16.1 33.3-19.7 7.9-3.7 15.4-9.1 22.1-16.4 6.8-7.3 12.9-13 18.5-17s10.3-7.2 14-9.5c3.7-2.3 7.7-5.7 12.1-10 4.3-4.3 7.7-7.3 10-8.7 2.3-1.5 5.7-2.8 10.1-3.8 5.5 1 9.4 2.7 11.5 4.6 2.1 2.1 4.3 4.8 6.4 8.1 2.3 3.4 5.4 6.2 9.2 8.5 3.9 2.3 10.3 3.4 19.1 3 8.8-.3 16.4.5 23 2.4 6.6 1.9 12.9 4.7 19 8.3 6.1 3.6 10.6 8 13.4 13 2.3 4.8 3.5 9.8 3.5 15v.9c-.2 5.5-2.1 12.2-5.7 20.1-3.6 8-10.4 18.1-20.6 30.2-10.1 12.2-24 26.6-41.5 43.3-17.4 16.7-32.6 31-45.5 42.8-13 11.9-23.4 20.3-31.4 25.2-8.1 5-15.5 7.2-22.4 6.4-6.8-.8-12.5-2.7-16.8-5.7-4.3-3.1-7.4-6.9-9-11.4-1.7-4.5-2.5-9.1-2.3-13.7.3-4.5 1-8.7 2.6-12.5 1.4-3.9 3.8-7.1 7.1-9.7 3.3-2.7 7-4.1 11.3-4.3 4.2-.2 8.9 2.3 13.9 7.7 5.1 5.3 10.3 7.9 15.7 7.9 5.4 0 12.4-3 21-9.2 8.6-6.2 18.3-14.7 29.1-25.7s21-22 30.4-33.2c9.5-11.1 16.1-19.9 19.7-26.5 3.6-6.6 6.7-13.8 9.2-21.7 2.6-7.9 2.6-13.4 0-16.4-2.5-2.9-7.4-4.8-14.6-5.7-7.2-.8-12.3-1.7-15.3-2.7-2.9-.9-6.3-.6-9.8 1.3-3.6 1.8-7.8 3.9-12.6 6.2-4.8 2.3-10.3 7.5-16.6 15.7-6.5 8.1-13 15.7-19.7 22.7-6.8 7-13.5 13.9-20.2 20.6-6.6 6.8-13.3 13.8-20 20.9-6.6 7.2-13.4 14.4-20.1 21.5-6.8 7.1-15.1 15.4-25.1 24.8-9.9 9.4-19.7 18-29.1 25.7-9.5 7.7-19.7 16-30.4 25-10.8 9-23.2 17.9-37 27-13.9 9-26.8 17.4-39 25.1-12.1 7.7-23.2 14.1-32.8 19.2-9.7 5.1-18.6 8.1-26.7 8.8-7.6-.6-12.4-2.1-14.4-4.5s-3.1-7-3.4-13.5c0-5.5.8-10.6 2.2-15.4 1.5-4.8 3.2-9.4 5.1-14 1.9-4.6 7.1-12.5 15.7-23.8s16.4-20.9 23.3-28.9c7-7.9 15.4-16.5 25.2-25.7 9.7-9 20.2-19 31.2-29.7zm-20.2 52.6c-17.7 19.4-29.2 32-34.6 37.9-5.4 5.8-11.6 12.4-18.6 20-7 7.5-9.7 12.9-8.4 16.3 1.4 3.4 5 4.4 10.8 3 5.8-1.4 14-5.9 24.4-13.8 10.5-7.8 23.5-17 39-27.4 15.5-10.5 31.9-22.3 49-35.4 17.2-13.1 34-27.6 50.5-43.6s27.6-27.4 33.3-34.3c5.7-6.9 12.6-15.1 20.8-24.5 8.2-9.4 14.8-16.6 20-21.6 5.2-5 7.4-8.7 6.8-11.2-.6-2.4-3.5-2.1-8.6 1s-11 6.9-17.8 11.5c-6.8 4.5-15.5 12.1-26.3 23-10.8 10.8-21 21.4-30.5 31.6-9.5 10.3-20.9 21.8-34.1 34.7-13.2 12.9-25.3 23.6-36.3 31.7-11 8.3-17.7 14.4-20.2 18.3-2.4 3.9-4.7 5-7 3.4-2.2-1.6-3.5-4.5-3.8-8.7-.3-4.2 4.1-9.2 13-14.9 9-5.7 21.6-15.9 37.6-30.6 16.1-14.7 24.3-24 24.4-27.9.2-3.9-2.1-5.2-7-3.5-4.9 1.6-9.7 3.8-14.4 6.5-4.8 2.7-11.9 8.3-21.4 16.6-9.4 8.5-22.9 22.4-40.6 41.9z" style="fill-rule:evenodd;clip-rule:evenodd;fill:#acacac"/><path d="m4763.3 3596.6-3.1 3.6h-15.8c1.4-.8 2.8-1.5 4.3-2 0 0 1.8-.2 5.2-.6 2.2-.4 5.3-.7 9.4-1m-4.3-220.7 25.5-2.3 15.4-3.4 10.1-8 6.9-8.9 13-10.8 11.3 5.6 1.2 14.1-3.5 25.6v27.9l3.5 8.4-2.3 7.9 2.3 11.3-1.2 10.8-6.8 3.5-11.4-5.7-11.9-11.8-9.2-14.8-18.7-14.1-19.7-6.7-11.3 1-10.9 7.9-1 10.8v20.3l-5.7 16.6-1.2 22.1-4.5 7.9 6.8 8.5 3.3 12.5-2.2 10.7 1.2 23.4 3.4 12.4 5.7 9.5 16.5 14.8 1.9 5.5c-.3-.3-.6-.4-.9-.6-1.5-.8-2.9-1.7-4.2-2.7-1.3-1-1.9-1.5-1.9-1.5l-14.3 5c-5.9 2-9.6 5.9-11.3 11.7l-26-.9-13-3.5-11.3 1.1-9.7 3.4H4644l-4.5-8 4.5-9.5 10.2-5.7 2.9-5.7 15.8-27.7-2.2-37.3-2.3-31.1 9.1-43.1-7.9-30.1 2.3-15.1 1-19.9v-17.5l5.2-14.7 1.1-11.9-1.1-14.8-5.2-40.8-1-17.5-6.8-14.1-18.6-15.9-3.5-9.5 13-3.5h22.2l28.9 1.1h25.5l26.6 6.1 17.7-3.7h18.1l17.5-2.4 30.1 2.3 17.5-1.2h16.5l22-5.5 12.6 2.2 3.8 10.8-2.7 18.1-1.1 10.8-3.5 10.1 2.2 26.6 3.4 13-7.8 9.2-9.2 1.1-6.3-6.7-6.8-10.3-1-9.7-3.5-7.9-6.8-6.8-5.1-9.6-6.8-2.2-10.2-6.7-47.7-11.9-10.8 1h-12.4l-7.4 2.8-4.7 3.7-2.1-1.9-1.2 3.2-6.7 1.6-6.8 6.4-1.8-8.8-6.8 2.3 1.8 8.8 6.8-2.3-1.7 1.7-2.2 11.9v17l-2.3 7.4-5.7 7.8-.6 6.5-1 .4.6 3.1-.3 3 5.7 22.1v10.2l-1.2 11.9 5.7 18.1 12 4.2zm-485.6 79.2 2.3 22.1v17.6l-4.6 11.4-1 12.9 1 19.2 5.7 6.2 4.6 9.1 35.1 11.9 40.2 3.5 11.9-2.3h26.6l11.3-8.4 9.6-21.1 3.5-5.7 3.4-13 13-7.8 11.3 6.8-3.3 16.4 3.3 9.5v10.2l-1.1 7.8v30.6l-4.6 5.7-25.5 2.3h-1.5c2.2-3.3 3.8-4.8 4.8-4.6l.3-2.2c-.3-1.3-2.4-3.7-6.3-7.2l-1.5.5c-.6.1-2.5 2.6-5.7 7.2l4.5 6.2h-35.3l-17.5 1.2h-77.6l-24.3-4.7h-12l-15.9 3.5h-19.8l-16.4 2.3H4176l-14.2-3.4-5.6-6.9 5.6-8.5 24.4-17 9.2-11.9 1-13v-21.6l1.1-11.9 5.1-7.9-1-14.1-8.6-27.7v-13l4.5-18.1 1.7-25.6v-7.4l-2.8-2.1-2.4-13.7 1.4-14.1 6.2-17.6v-21l-1-12.8 2-4.4-2.5-2.1-.8-9.5v-18.7l1-7.8v-11.3l-8.4-14.2-21.1-14.2-5.4-11.4 1-9.5 11.9-1.2 14.7 1.2 15.3 2.7h13l20.3 1.2 23.3-6.1 23.2 2.3 14.3-1.2 6.7 3.9-2.2 8-19.9 13.7-7.9 9.5-4.5 14.8-5.7 11.9v33.4l-.6 16.3v14.2l-10.2 24.3 9 5.7 3.9 6.7 1.3 6.3-3.5 6.8-1.7 33.5 1.2 27.7 5.1 9.7zm-516.3-255.3 38.4-2.2 18.1 2.2 56.1 24.4c35.2 32.1 58.4 57.5 69.6 76.4l21 31.7 5.6 14.7 2.3 15.4-5.7 27.7 5.7 14.2v34.4l-3.4 24.4c-2.9 6.5-9.5 20.4-19.9 41.9l-3.3 2.1-24.3 35.2-38.6 32.3-38.4 22.1-27.9 11.4-31-1.2-26.7 1.2h-34l-6.8-2.2-37.4-3.5c-6.6-3.2-13-6.8-19.4-11-6.2-4.1-13.1-9.2-20.8-14.9-3.1-2.4-6.1-4.6-8.8-6.7v-4.5h-5.9c-1.8-1.3-3.5-2.5-5.1-3.7l-18.7-30-16.4-14.1c-3.8-6.5-9.3-15.9-16.3-28.3s-12.8-22.3-17.2-29.5l-1.1-50.9-2.2-18.7-1.2-16.4c8.6-26.6 14.9-44.8 18.9-55 3.9-10.1 10.2-20.7 19.1-31.6l1-9.7c4.3-4.7 7.8-8.6 10.8-11.9 2.9-3.3 6-6.6 9.4-9.8 3.3-3.2 6.8-5.9 10.4-8.2l15.9-14.1c8.8-4.5 17.9-8.5 27.1-12 9.2-3.4 18.6-6.7 28.3-9.8 9.6-3.1 20.6-6.6 33-10.6h19.7l20.1-1.2zm95.1 90.7c-4.6-7.1-10.2-14.1-17-20.8-6.8-6.7-14.8-14.6-24.1-23.5-9.4-8.8-16.6-16.5-21.9-23l-17.5-3.5H3736l-19.7 5.7c-24.9 11.4-41.9 24.3-51 38.6l-17.5 23.2-9.1 25.4c-2.5 6.4-6.1 13.7-10.8 22.1-4.7 8.5-8.1 14.6-10.1 18.6l-2.1 12.4 12.4 15.4 1.1 11.3-3.5 19.7v25.5l4.5 23.2-1 20.9 4 25.5 20.3 33.5 34.1 19.7 9 1.2 22.1 9.6h16.5l16.5 2.3 11.3 6.7 33.9-9 3.3-1.4c.3 1.8.8 3.7 1.6 5.5 1.5 4 4.1 7 7.7 9l1.6-5c0-4.8-1-9-3-12.8l2.6-1 25.3-14.1 15.7-15.7v1.2c0 4.1 1.5 7 4.6 9.1l3.9-5c-1.8-1.9-3-5.4-3.6-10.2l15.7-15.8 11.4-56.5 5.6-11.9 2.8-21.5-1.1-14.1-7.4-10.2-2.2-13 2.2-5.7 2.3-38.5 5.1-10.1-1.7-13.2c-3.2-3.6-6.6-7-10.2-10.1-3.6-3.1-8.9-7.2-15.7-12.2-7.3-4.8-10.9-7.3-11.2-7.5zm-671.5-49.9-9-4.5c-3.5 1.9-12.8 4.5-27.3 7.8l-3.5 8.1c4.9 7.6 8.1 14.3 9.6 20.1 1.5 5.6 2.3 13.3 2.3 22.9l4.7 14.1 6.7 4.6 8.6-7.4c6.9-20.5 10.3-35.8 10.3-45.9-.1-3.5-1-10.1-2.4-19.8zm53.2 362.9-13.6 9.2-12.9-5.7c-3.7-8.5-6.8-20.6-9.5-36.5-2.7-15.9-8-30-16.1-42-3.9-4.8-8.4-12-13.5-21.5-5.1-9.4-8.7-15.9-10.8-19.4v-10.2l-6.8-11.9-11.9-1.2c-13.4 15.1-22.2 33.3-26.5 54.9v7.8l-2.4 4.6-2.2 11.9-14.3 25.6c-6 20.1-11 33.2-14.6 39l-11.9 4.5-15.9-19.2-.5-14.3c-5.3-9.5-11-23.9-17-43.3-5.5-17.5-10.2-30.6-14.1-39.1h.1v-8h-3.1l-5-14.9-1.1-7.2-7.3-9.2c-2-8.9-3.4-18.3-4.1-28l1.1 1.8 4.6-6.1-4.6-5-1.5 1.9c-.1-2.5-.1-5.1-.1-7.7-11.5-16.3-20.2-33.2-26-51-5.9-17.8-12.8-42.8-20.4-75.2l-17-27.9-6.2-7.2-18.2-5.7c-3.5-4.8-6.6-8.8-9.2-12.2-2.5-3.5-4.9-7.2-7-11.2-2.1-3.9-3.6-8.1-4.6-12.3l10.2-2.8 37.4 6.4 25.5-1.4 9 1.2 14.2 3.4 38-6.8 5 3.5 3.5 13.5 4.5 8.5-6.8 9c-5 2.4-8.3 4.6-9.5 6.7-1.4 2-3.6 7.2-6.9 15.5l4.5 17.5 4.5 6.7 1.3 13.6 5 18.6c.8 6.7 3.8 15.5 9.1 26.2s8.3 19.6 9 26.5c-1.5 4.9-2.6 8.7-3.3 11.3 1 4.6 2.6 8.5 5 11.9l-2.1 2.2c.8 2.2 1.9 3.7 3.2 4.8l-.5 4.4 14.1 13 10.8 26.6c-4.2 11.8-6.3 21.4-6.3 29 8.1 7.5 15.5 11.6 22.1 12.4 1.5-.8 3-1.3 4.7-1.3 4.3-20 11.2-35.1 20.8-45.2 5.3-12.8 10-31.3 14.1-55.6-1.7-5-6-14.8-12.8-29.4-6.8-14.6-11.4-26.4-13.7-35.7l-1.2-10c-5.1-6.3-9.8-13.2-13.9-21-4.1-7.7-8.6-16.3-13.5-25.8-4.9-9.4-9.7-17.5-14.5-24.1l-9.1-2.2c-4.7-6.8-7.5-13.4-8.4-19.9.7-2.3 1.1-5.7 1.1-10.2l8.4-1.2h17.1l26.6 2.2 19.8-2.7 28.9-1.2 16.4 1.2 17.6 2.7h29l31.6-5 12.4 1.2 13 18.7-2.8 8.4c-20.4 7.3-36.5 16.9-48.6 29l-2.4 13.4c-3.9 5.8-8.2 14.8-13 27.4-4.8 12.6-7.8 20.3-9.2 23.1l-4.5 19.1c2.2 9 6.9 21.8 14.2 38.6v17.6c.8 11.9 2.2 21.3 4.7 28.4 2.3 7 7.8 13.4 16.3 19.1l-1.3 13.7 8 9.5 9 3.4 4-5.7v-9.5c3.8-4.4 7.1-9.2 9.9-14.4 2.8-5.4 5.9-12.3 9.4-20.8s5.9-14.1 7.4-16.9l3.3-20.9 5.7-6.8c1.9-10.8 4.3-21.2 7.4-31 3-9.7 7.4-22.2 13.2-37.3 5.7-15.2 9.2-24.8 10.6-29v-29.5l-10.1-15.9-25.5-10.8-3.3-11.3 4.3-10.8 12.6-1.2 37.3 3.4 33.5-3.4 14.1-1.1 6.8 10.7c-1.2 11.5-4.1 21-8.9 28.6-4.8 7.6-12.2 14.6-22.3 21.1l-3.4 10.3-4.4 3.5c-4.8 27.5-9.7 50.3-14.8 68.6-5 18.2-12.6 33.7-22.8 46.3-8.5 24.5-14.8 42.3-18.6 53.5-3.9 11.2-8.8 26.2-14.7 45.1-5.9 18.9-11 36.1-15 51.5-4.1 15.5-7.5 30.8-10.4 46.2l-6.5 11.8zm-1011.6-264.2-1.6 15.2-4.6 5.7 1.2 9.1 10.8 8.5 11.4-.6c5.4-6.7 11-12.9 16.7-18.7 5.7-5.7 11.9-11.6 18.7-17.8 6.8-6.1 13.7-12.5 20.6-18.9l14.7-4.6 8.6-6.8 5.6-13.1c3.9-3.3 8.3-6.9 13.2-10.6.3-.3.5-.4.6-.6.8-.1 1.7-.3 2.8-.4 3.4-.4 8.8-1 16.2-1.5l.4-2.2c-.3-1.3-.9-2.4-1.9-3.5-1-1-2.1-1.9-3.5-2.7.6-.5 1.4-1 2-1.5 6.3-4.4 11-7.8 14.4-10.4l2.2-10.7-3.3-13.6-7.4-9.6-2.3-14.8 7.5-6.2c21.1 1.5 38.1 2.3 50.8 2.3l8.3 5-5.7 1.9 1.5 7.8 6.8-2.3-1.4-6.7.6.4h10.7l23.3-6.2 20.8-1.2 8 1.7 5.7 10.2-5.7 9-9.1 6.2-16.4 3.5-23.2 11.4-10.8 9.5-12.4 6.8-10.6 9-9.2 10.8-10.2 7.8-27.1 11.9-6.8 9.2-14.8 12.4-9.5 10.2-.1-.1-.1.3-3.4 3.6-24.4 15.4-14.3 27.8 3.5 9c.5.2 6.1 4.3 17 12.4 11 7.9 19.9 13.3 27.1 15.9l3.5 14.7 7.4 9.2c17.9 12 37.5 32.6 58.9 61.6l13 9.2 13.7 2.7 9.5 8.1 19.9 31.1 35.7 23.2 2.1 8.5-9 5.7-15.4 1.3c-11.2-1.6-27.9-3.2-49.7-4.6l-17.5-4.6-22.2 3.4-15.9-1.2-8.4-6.3 2.8-10.1 6.8-4.6-1.1-9.6c-8.2-11.7-22.2-25.1-41.9-40.3l-19.8-26.5c-4-2.9-7.9-6.1-11.6-9.4l1.2-2.8-8-5.5-.5 1.2c-2.3-2.4-4.5-4.8-6.6-7.3l-6.7-4.5-4.7-10.3-10.6-11.9-9.4-4.7c2-.5 4.1-.8 6.3-1.1 2.4-.3 4.6-.5 6.5-.6 2-.2 3.5.1 4.8 1 .1-5.8-2.5-10.7-7.8-14.4l-4.5-3-15.1 5.8c.2 3.4.8 6.1 1.5 8.1l-2.3-1.2H2228l-6.8 6.8v15.2l3.4 26.7-3.4 11.9 3.4 27.7-1.1 18.2 9 10.8c3.1 7 8.6 14.6 16.4 23l11.4 7 3.3 8.4-9 6.8-11.9 1.1-12.4-3.3h-12.4l1.4-3.5-7.1-5-3.5 8.5h-18l-32.4 2.2H2142l-9.2-8.5 5.7-8 11.4-6.7 13-23.3-2.2-63.8 10.2-24.5-2.3-9-12.4-19.9 2.1-36.3-1.1-34.6 4.6-13 5.7-10.1 1.1-15.3-9-21-1.3-11.4V3266l-4.4-15.2-5.1-10.2-11.4-5-6.8-6.8v-9.2l10.2-5.7 7.9 3.5 37.3-4.5c30.6-2.6 48.7-4.4 54.4-5.1h11.9l9.2 3.5 4 4.4-4.4 5.4 3.7-1.3-5.6 5.5-12.6 8-16.3 17.5v17.5l-4.5 9-1.2 8.6 1.2 16.9 4.5 9.7-1.2 12.4-6.8 14.4zm-471 232 47.5 2.2 43.1-1 19.9-8.4 16.9-12.4 25.6-32.4 7.2-17.5 16-17.5 7.4 4.5 2.1 8.4v17l5.7 32.9-2.2 14.7-7.9 8.6-36.4 18-26.6 8.5-15.3 6.7-41.3 5.8-36.2 1.2-31.2-3.5-29.4-11.3-42.4-22.2-47.6-36.2-28.4-37.9-14.8-48.8-2.2-32.8v-40.2l7.9-35.1 7.9-22.2 6.3-12.5 6.8-14.1 5.7-7.9 4.7-13.2 9.5-15.2 26.6-9.1 11.4-11.4 9.5-15.2 47.6-17.5 18.8-3.4 28.8-1.2 30.1 2.2h41.9l26.5 1.3 30 10.6 22.2 10.3 10.8 6.8-1.1 80.4-6.3 4.7-10.2-1.4-15.4-28.7-36.8-29.4-5.7-11.4-23.2-7-30.6-10.6-14.7-2.3-8.5 2.3h-15.9l-9.5 4.3-30.1 7.5-52 52-5.2 19.9-3.4 9-5.6 22.2-4.4 33.3-3.5 9.5v8l4.5 8.5v9.1l1.1 14.1 1.2 17-1.2 24.4 1.2 23.2 9.2 24.3c8.8 9.7 22.8 22.9 41.8 39.7l41.8 17.8zm-507.8-241.2 5.7-10.8-2.1-5.6-8.1-4.6h-8.4l-3.5 4.6-2.3 9.1-4.5 7.4-7.9 13.5-8.6 24.3v13.2l1.1 10.1 3.4 11.9c13.8 2.1 21.7 3.2 23.8 3.5 2.3-.7 5.7-1.1 10.3-1.1l14.1-4.5 2.4-8.4-1.2-9.2-3.9-15.4-2.4-12.4v-11.8l-7.9-13.8zm-19.6 99.7c-19.1 1.4-33.1 3.3-41.9 5.6l-10.2 9-3.5 13.1-4.5 12.5-5 9.5-3.5 9.2-3.4 15.1-6.8 11.3-6.8 20-1.7 14.1 2.8 12.4 10.2 8.6 9.2 5.7 5 8.9 2.3 11.9-3.4 5.7-11.9 1.1-21.9-2.1-14.8 1.1-47-4.5-17-8.5 3.5-10.2 12.4-5.7 28.4-18.7 6.8-12.4 12.3-23.2 6.2-9.7 7.9-12.4 10.8-9.5 2.3-13.7 6.8-24.3 5.7-13 15.2-26.5 3.5-9.7 1.9-7.4h6.4v-11.2h-3.4l1.8-6.8 11.9-19.3 3.5-14.2 5.7-16.4 9-20.8 4.1-8.1 5.7-14.1c1.8-5.5 4.1-11.5 6.8-18.1l4.5-11.9 1.2-21 1-22.1 8.5-6.8h10.2l6.2 8.1v15.2l8.1 24.3 12.4 27.8 5.1 28.9 6.8 10.8 7.3 25.8-.5.5-9.5 20c5.5.9 9.8 1.5 12.8 1.9.5 0 .9.1 1.4.1l3.7 13.3 3.4 8.1 3.4 15.1v14.8l9.1 15.2 6.2 15.9 5.7 14.1c1.9 3.9 4.8 11.2 8.5 21.6 3.7 10.5 7 18.8 9.6 24.8l1.7 10.2v10.8l8.1 5.7 7.8 12.9 3.5 12.5 10.7 11.9 14.8 6.8 7.4 8.1-1.2 8.4-8.4 6.8h-40.2l-23.2-1.1-21 2.1h-30l-2.7-6.8 10.6-5.7 14.7-3.8 7.4-11.4 1.1-19.9-2.3-10.1-3.4-6.2-3.8-14.7 1-8.5-12.4-18.1-3.4-8.6-1.2-11.3-3.3-5.7-5.1-8.5V3453l-4.6-9.6-5.7-6.8c-3.5-4.5-10.2-6.8-19.7-6.8h-23.7zm-538 25.3 2.2 22.1v17.6l-4.6 11.4-1 12.9 1 19.2 5.8 6.2 4.5 9.1 35.1 11.9 40.3 3.5 11.9-2.3h26.6l11.3-8.4 9.6-21.1 3.5-5.7 3.4-13 13-7.8 11.4 6.8-3.4 16.4 3.4 9.5v10.2l-1.2 7.8v30.6l-4.5 5.7-25.6 2.3h-40.7l-17.6 1.2h-77.6l-24.3-4.7h-11.9l-15.8 3.5h-19.9l-7.5 1c0-.6-.1-1.2-.2-1.8-8 .4-13.9 1.4-17.4 3h-7.2l-14.1-3.4-5.7-6.9 5.7-8.5 24.3-17 9.2-11.9 1-13v-21.6l1.2-11.9 5.1-7.9-1-14.1-8.6-27.7v-13l4.5-18.1 1.7-25.6v-7.4l-2.8-2.1-2.3-13.7 1.3-14.1 6.2-17.6v-21l-2.4-28.9v-18.7l1-7.8V3259l-8.4-14.2-21-14.2-5.5-11.4 1-9.5 11.9-1.2 14.8 1.2 15.2 2.7h13l20.3 1.2 23.3-6.1 23.2 2.3 14.3-1.2 6.7 3.9-2.1 8-19.9 13.7-7.9 9.5-4.5 14.8-5.7 11.9v33.4l-.6 16.3v14.2l-10.2 24.3 9.1 5.7 3.8 6.7 1.4 6.3-3.5 6.8-1.7 33.5 1.1 27.7 5 9.8zm-586-235.4c-1-1.5-2.2-3.1-3.7-4.7-1.4-1.6-2.8-3.2-4.2-4.9l6.8-5.7 13-2.4h9.1c7 0 16.9 1.4 29.3 4.2 12.4 2.8 20 4.4 22.7 4.9l16.3-3.4h16.5l13.7 1.2 17.5 1.2h13.4l.1.1c0-.1.1-.1.1-.1h19.7l22.1 2.7 25.5 13.6 35.1 27.7 8 8.6 7.9 28.8v11.4l4.1 14.3 1.1 13-6.2 16.9-9.2 11.9-13 4.6-5.7 4.5-6.8 6.8-9.1 3.9-9.5 5.7v6.8l37.2 31.2 4.7 10.6 9 14.8c1.2 5.2 2.6 10.8 3.9 17 1.4 6.3 3.3 14.8 5.7 26l1.2 14.3-1.2 11.3-3.4 16.2-10.6 24.5-9.2 6.8-9.6 2.8-14.7 14.8-28.9 9.5-22.1 2.4-18.7 2.2h-30.6l-32.4 1.1-13.5-2.2-23.2-1.1-34.1 3.3-14.1-2.2-13.6-5.2 9-9.2 13-10.1 8-13v-12.6l5.7-3.8 1.2-18.1.6-28.4-.6-23.2-1.2-83.3v-32.3l1.2-27.2 4.1-13.7-2.4-14.1-1.7-12.4v-21l-1.2-17.5-6.7-15.2-2.8-2.5v-15.7c-3.7 1.4-5.5 4.7-5.5 10.1 0 .3.1.6.1.8l-2.1-1.8-15.1-5.5zm153.5 13.7-7.4 1-19.7-3.4-11.4 1-11.9 9.7-4.5 15.9 3.5 13c-.5 2.1-1.7 7.2-3.7 15.5-2.1 8.2-3.5 14.1-4.3 17.9v13l4.5 11.3 2.2 9.5v9.1l2.3 11.9 14.2 10.2 19.9 1.1 16.3-1.1h15.9l16.4-5.6 16.5-16.5 7.9-13.5 1.1-16.4v-32.4l-2.1-9.5-6.8-15.9-7.4-6.2-3.4-5.7-6.8-7.9-11.9-5.1h-9.2l-10.2-.9zM2303 3343.3l-2.7 6.1 1.5-12 1.2 5.9zm106.7-105.4c.8 3.9-.6 6.5-4.1 7.7-5 1.7-8.2-.6-9.5-7.2l.5-1.2 12-4.2 1.1 4.9zm-95.7 102.7-4.5-3.2 6.9-2.6-2.4 5.8zm-110.6 191.9-.1-16.4 2.3.1c1.2.8 2.9 5 5.2 12.5l-7.4 3.8zm109.8-38-5.4-3.7 7.7-2-2.3 5.7zm104 64.6-3.9 9.2 8.1 5.5 3.8-9.2-8-5.5zM1274 3386.4c.3 1.3-.6 5.1-2.6 11.4l-10.4-7.9 2.6-7.2 1.5-.6c.5-.1 3.2 1 8 3.5l.9.8zm18.1 49.1-3.7 1.2 2.8-6.1.9 4.9zm5.6 27.2-5-4.5 2.8-6.2 5.5 3.3-3.3 7.4zm18.2 22c-7 2.4-11 5.5-11.7 9.3l-4.8-3.6c.3-4.2 2.1-7 5.6-8.1l9.8-3.4 1.1 5.8zm-688 78.9-5.5 7.6-6.6-8 5.5-7.6 6.6 8zm23.2-16.8-4.1 5.8-.3-11.1 4.4 5.3zm487.2 16.7v11.1h-8.6v-11.1h8.6zm577-347c-2.3 5-3.9 7.5-4.8 7.9l-1.7-.5 1.8-11 4.7 3.6zm204.4 301.2-6.1 2.1-1.6-7.8 6.1-2.1 1.6 7.8zm-1744-260.1v8.1h-6.2v-8.1h6.2zm10.9-47.3-8.6 6 3.9-6h4.7zm134.1 63.5v8.1h-6.2v-8.1h6.2zm31.9-13.1 4 5.1-8.7-5.1h4.7zM160.2 3467l-8.5 6.1c-5.2-11.4-7.9-16.8-7.9-16.1 0-2.7 1.1-4.7 3.2-6l13.2 16zm-17.2-43.2-4.6-6.1 4.6-5v11.1zm35.1 21.1c1.6 0 4.2 2 7.7 6.1l-4.6 5c-1.5-2.7-2.8-4.5-3.5-5.5-.8-1-1.2-1.8-1.2-2.5l.8-3h.8zm4644.1-86.9 5.2-1.8 1.6 7.8-5.3 1.8-1.5-7.8zm-135.6-95.1-6.1 2.1-1.6-7.8 6-2 1.7 7.7zm8.7 42.9-6.1 2.1-1.6-7.9 6-2.1 1.7 7.9zm-17 54.9-1.2-1.7c-.6-3.3.8-5.5 4.3-6.7 4.1-1.3 7 0 9 4.3l-12.1 4.1zm40.8-14c.1 3.4-1.6 5.7-5.1 7-3.5 1.2-5.9.2-7-2.8l2.6-7.1 1.5-.6c1.4-.6 4.1.7 8 3.5zm-7.8 88.2-6.7-9.2 5.5 3.3 1.2 5.9zm-28.9 95.3-8.2 2.9 7-8.7 1.2 5.8zm-447.3-215.8c3.3-5.3 5.4-8.1 6.4-8.4l1.7.4-3.1 12.5-5-4.5zm.7-71.2 6.1-2.1 1.6 7.8-6.1 2.1-1.6-7.8zm-23 48.6c-.4-1.9-.1-3.8.9-5.5 1-1.7 2.1-3.4 3.5-4.8 1.3-1.6 2.4-3 3.5-4.4 1.1-1.4 1.7-2.8 1.9-4.3l6 9.4-15.4 11.5-.4-1.9zm5-62.2c1.2-4.7 3.8-7.6 7.9-9 3.5-1.2 6.4-.1 8.7 3.3l-2.8 6.2-5.3 1.8c-4 1.4-6.8.6-8.5-2.3zm-31.6-.6c.7-4.4 2.8-7.2 6.3-8.5 2.5-.8 4.7.5 6.5 4.1l-2.7 6.1-1.3 1.5c-.6.3-3.5-.9-8.8-3.2zm29.8 364.2-6.1 2-1.6-7.7 6-2.1 1.7 7.8zm-654.6-184.1.8 2.1c0 5.4-2.6 8.1-7.8 8.1h-1.5v-5.2c3.7-4 5.9-6 7-6l1.5 1zm51.5 15.1v4.1s-1.5 2.7-4.7 8l-3.9-5c4.2-4.7 6.6-7 7.1-7h1.5zm268.9 94.8v5l-4.7-5h4.7zm-858.6-55.5c4.7 0 7 3.6 7 11 0 5.4-1.5 9.1-4.7 11.1l-8.6-16.1c3.7-4.1 5.8-6 6.3-6zm-23.3-93.8-8.6 11.2-3.9-5c.4-4.1 2.8-6.1 7-6.1h5.5zm-14.9-52.3v9h-6.3v-9h6.3zm19.5 20.1c2.6 3.4 4.7 6.4 6.3 9.1 1.5 2.7 2.3 4.7 2.3 6.1 0 3.4-1.6 5.4-4.7 6-6.2-8.1-9.4-13.7-9.4-17.2v-2c0-.6.3-1.4.8-2h4.7zM268.1 3402h-10.2l-25.5-5.2-14.1 2.3-12.5 7.4-9.5 24.4 3.3 15.9-3.3 15.2-9.2 18.8 3.5 10.1 6.7 9.6v14.6l-2.4 13.2-4.3 12.5 2.1 13 11.9 9 30 8.6 28.9 1.2 21-3.3 12.4-6.4 8.4-12.5 6.8-20.8 1.2-17.5 3.3-12.5 1.2-12.9-9-32.4-2.4-15.3-15.2-28.7-11.4-7-11.7-1.3z" style="fill-rule:evenodd;clip-rule:evenodd;fill:#e1111b"/><path d="m1572.9 2308.4-13.5-4.5.7-3.1c1-1.4 4.9-2.6 11.7-3.5m-7.2-122.2-6.8 9.4-6.5-7.8 6.8-9.4 6.5 7.8zm301-545.2c-3.4-3.7-5.2-6.6-5.2-8.8 0-2.2.8-4.3 2.6-6.1 1.7-1.8 3.2-3.8 4.7-6s3-4 4.7-5.5c1.7-1.5 2.5-2.6 2.5-3.3l-9.3 29.7zm-317.3 355.8c0 10.2 1.4 16.5 4.3 18.7l-4.3 5.5c-3.4-1.5-5.1-4.8-5.1-9.9v-14.3h5.1zm-293.1 334.8c1.8 0 4.6 2.3 8.5 6.6l-5.1 5.5c-1.6-3-3-5-3.8-6-.8-1.2-1.3-2.1-1.3-2.8l.8-3.4h.9zm-38.3-23.1-5.2-6.6 5.2-5.5v12.1zm18.7 47.3-9.4 6.7c-5.6-12.6-8.5-18.4-8.5-17.7 0-3 1.2-5.2 3.4-6.6l14.5 17.6zm-46.9-12v2.3s-1.4 3.2-4.3 9.8l-5.1-5.4c4.5-4.4 7-6.7 7.6-6.7h1.8zm215.8 216c1.2 0 3.4 2.2 6.8 6.6l-4.2 5.5c-3.4-5.9-5.1-8.8-5.1-8.8l.8-2.3 1.7-1zm20.5 47.3c3.4.8 5.1 3 5.1 6.6 0 1.5-.6 3.2-1.7 5-1.1 1.9-2.2 3.5-3.4 5-1.2 1.4-2.2 2.7-3 3.8-.8 1-1.3 2-1.3 2.8V2596h4.3zm-74.1-90.3v8.8h-6.8v-8.8h6.8zm29 55.1c3.4 1.5 5 4.4 5 8.8s-1.7 7.4-5 8.8c-2.9-3-4.2-6.2-4.2-9.9v-7.7h4.2zm101.4 131.2v8.8h-6.8v-8.8h6.8zM1344 2566.3l-4.3 6.5-4.2-6.5 4.2-5.5 4.3 5.5zm49.5 70.6 4.2 5.5-8.5-5.5h4.3zm40.9 40.8c2.3 1.5 3.4 3.2 3.4 5.5 0 0-.8 1.4-2.2 4.3-1.4 2.9-3.5 7.4-6.3 13.2-2.3-.8-3.4-3-3.4-6.6 0 .1 2.8-5.5 8.5-16.4zm-132.9-131.3v8.8h-6.8v-8.8h6.8zm28.9 49.6c-.6 3 .3 5.9 2.5 8.9 2.3 2.9 4.6 5.8 6.8 8.8l-4.2 5.5c-6.9-8.9-10.2-15.1-10.2-18.8v-2.2c0-.8.3-1.5.8-2.3h4.3zm-101.4-99s2.6 1.7 7.7 5.4l-5.1 6.6c-1.7-2.9-2.8-4.9-3.5-6.1-.5-1-.8-2-.8-2.8v-3.2h1.7zm285.2-302.4c-1 1.4-1.7 3.4-2.1 6.2-.5 2.7-.9 5.7-1.4 9.1-.5 3.4-.8 6.6-1 9.7-.1 3-.8 5.2-1.7 6.6-2 2.8-5.7 3.6-10.9 2.5l-.6-22.3 3.8-5.2c4.6-6.2 9.2-8.5 13.9-6.6zm-67.3-91.2-3.7 5.3-.3-10.1 4 4.8zm51.1-449.6c1.2 0 4.1 2.3 8.5 6.7-1.6 4.4-3.9 6.6-6.8 6.6-3.4 0-6-2.3-7.7-6.6l5.1-5.5.9-1.2zm-52-64.9c2.8 3.7 5.1 7 6.8 9.9 1.7 3 2.6 5.2 2.6 6.7 0 3.6-1.7 5.8-5.1 6.5-6.8-8.8-10.2-15-10.2-18.7v-2.2c0-.7.3-1.5.8-2.2h5.1zm-21.3-22.1v10h-6.8v-10h6.8zm16.2 57.3-9.4 12.2-4.3-5.5c.5-4.4 3.1-6.7 7.7-6.7h6zm-55.4-23.2c-1.7 3.7-4.3 5.6-7.7 5.6-4.5 0-6.7-3-6.7-8.9 0-.7 1.7-3.6 5-8.8l9.4 12.1zm60.5 83.8-5.1 6.6-4.2-6.6 4.2-5.5 5.1 5.5zm20.5 41.9c5.2 0 7.7 4 7.7 12.1 0 6-1.6 9.9-5 12.2l-9.4-17.6c3.8-4.5 6.1-6.7 6.7-6.7zm-71.6-71.6c-.6 2.2-.1 4.4 1.2 6.6 1.5 2.2 3.2 4.6 5.2 7.2 2 2.6 3.7 5 5.1 7.2 1.4 2.2 2.1 4 2.1 5.5 0 2.9-1.4 6.2-4.3 9.9 0-2.2-.7-4.6-2.1-7.2-1.5-2.5-3.1-5.2-5.1-7.7-2.1-2.6-3.7-5-5.2-7.1-1.4-2.2-2.1-4.1-2.1-5.6.1-2.2 1.8-5.2 5.2-8.8zm67.4 99.3v8.7h-6.8v-8.7h6.8zm-74.2-57.5c4.5 0 6.8 2.6 6.8 7.8 0 7.3-2.9 11-8.6 11l-.8-1.2c-3.4-5.1-5.1-8.1-5.1-8.8v-3.3c5.1-3.6 7.7-5.5 7.7-5.5zm-40.1-66c2.2 2.9 3.4 6.2 3.4 9.9 0 1.5-.6 3.5-2.1 6-1.4 2.6-3 5.5-4.6 8.8-1.7 3.4-3.3 6.4-4.7 9.4-1.4 3-1.8 5.5-1.3 7.8l-4.3-5.5c1.2-1.5 2-3.9 2.6-7.2.6-3.3 1.3-7 2.1-11 .8-4.1 2-7.7 3.4-11.1 1.4-3.3 3.2-5.7 5.5-7.1zm-5.1 71.6-4.3 6.6-4.3-6.6 4.3-5.6 4.3 5.6zm5.1 18.7c.6 1.4 1.2 3.2 2.1 5 .9 1.8 1.9 3.6 3.1 5.5 1.1 1.8 2.1 3.9 3 6.1.8 2.2 1.2 3.7 1.2 4.4 0 3.7-1.6 6.6-5.1 8.8l-9.3-12.2v-4.4c-.1-6.6 1.6-11 5-13.2zm28.1 41.9c-6.2 3-9.4 8.5-9.4 16.6 0 15.4-3.1 23.9-9.4 25.3l-9.3-12.1v-3.4c-.6-3.7 0-7 1.7-9.9 1.7-2.9 4-5.8 6.8-8.8 9.1-7.4 13.9-11.8 14.5-13.3l5.1 5.6zm149.2 241.4-5.1 5.5-4.3-5.5 4.3-6.6 5.1 6.6zm-200.3-259c-2.8 13.2-9.1 21.3-18.8 24.3l-5.1-6.7c2.3-2.9 5.4-5.7 9.4-8.2 3.9-2.6 8.8-5.8 14.5-9.4zm134.7 205h-4.2l4.2-6.6v6.6zm-35.8-49.6c.5 0 3.1 2.2 7.7 6.7l-9.4 12.1-4.3-5.5v-2.2c0-.8.5-1.9 1.4-3.3.8-1.5 1.8-3.7 2.9-6.7l1.7-1.1zm77.5 103.6v5.5l-4.3-5.5h4.3zm-164.5-205c4.5 0 6.8 4 6.8 12.1 0 5.8-1.7 9.9-5.2 12.1 0-.7-.4-1.6-1.3-2.7-.8-1.1-1.9-2.4-3.4-3.9-1.4-1.5-2.5-3.1-3.4-5-.9-1.8-1.4-3.5-1.4-4.9v-2.3c5.4-3.6 7.9-5.4 7.9-5.4zm85.3 138.9c3.4 5.1 5.2 8 5.2 8.8v3.3l-9.4-6.6 4.2-5.5zm-20.5-30.9c4.5 0 6.8 2.5 6.8 7.7 0 7.3-2.6 11-7.6 11h-1.7c-3.4-5.8-5.2-9.2-5.2-9.9l.9-2.2c3.4-4.4 5.7-6.6 6.8-6.6zm86.1 133.4-5.1-6.5 5.1-5.5v12zm-46.9-80.5c4.6 0 6.8 2.5 6.8 7.7 0 .7-.6 3.1-1.7 7.1-1.1 4-2.8 9.7-5.1 17.1l-13.6-18.7-.9-2.3c0-1.4 1.7-4.7 5.2-9.9 2.2-.7 3.9-1.1 5.2-1.1 1.5.1 3 .1 4.1.1zm-102.3-112.4-9.4 12.1-4.2-6.6v-5.5c-1.2-5.2.3-9.2 4.2-12.1l9.4 12.1zm44.3 68.3v9.9h-6.8v-9.9h6.8zm73.4 99.2c1.2 0 4 2.2 8.6 6.6l-9.4 12.2-5.1-5.5v-2.2c0-.7 1.7-4 5.1-9.9l.8-1.2zm-66.5-71.6c3.4 0 5.2 2.5 5.2 7.7 0 7.4-2.9 11.1-8.6 11.1l-.8-1.1v-17.6h4.2zM1446 2119l4.3 5.6-9.4-5.6h5.1zm-174.7-199.5c4.5 0 6.8 2.6 6.8 7.7 0 7.4-2.5 11.1-7.7 11.1h-1.7c-3.4-5.1-5.2-8.5-5.2-10l.9-2.2c3.5-4.4 5.8-6.6 6.9-6.6zm139.8 213.8v8.9h-6.8v-8.9h6.8zm-119.4-128.9-9.4 12.2-4.3-6.6 9.4-12.2 4.3 6.6zm42.7 125.7v12.1l-5.2-12.1h5.2zm-81.8-14.4v8.8h-6.8v-8.8h6.8zm674.4-413.8v13.7h-9.4v-13.7h9.4zm1883 465.2c-1.5 1.3-3.9 3.1-7.3 5.3-3.4 2.3-7.5 5.5-12.6 9.5-4.7 3.2-8.5 5.7-11.5 7.9-3.2 2.2-6.3 3.9-9.6 5l-3.3 1.2c-.5.1-1.7.2-3.5 0 4.3-7.5 9.2-13.9 14.6-19.2 5.4-5.3 11.9-9.3 19.6-11.9l7.4-2.6 6.2 4.8zm-650.2 233.1-6.6 2.3-1.8-8.6 6.6-2.2 1.8 8.5zm-1.3-62.3c-.5 3.2-1.5 5.2-3.2 5.7 0 0-1.3-.5-3.9-1.6-2.6-1-6.4-2.5-11.5-4.6 0-3 1.4-4.9 4.1-5.9 0 0 4.8 2.1 14.5 6.4zm-36.9 9.3-6.6 2.2-1.7-8.5 6.6-2.3 1.7 8.6zm-41 41.3c-1.8 5.3-4.9 8.6-9.4 10.1-4.4 1.5-8.4.6-12-2.7.7-4.8 3.1-7.9 6.9-9.2 9.4-3.2 13.9-4.4 13.4-3.5l1.1 5.3zm9.4-92.1c.3 1.4-.5 5-2.2 11l-6.1-3.7c3.5-5.7 5.4-8.6 5.4-8.6l2.6.2.3 1.1zm-23.8.2-1-5.4 5.9 3.6-4.9 1.8zm-52.5-53.9c-1.7 2.8-2.9 5-3.5 6.3-.6 1.4-1.2 2.1-1.7 2.3l-2.8-.2 2.8-12.4 5.2 4zm-147.2-1126.3 4.2-10.1-8.8-6.1-4.1 10.1 8.7 6.1zm221.2-46.1 7.8 5.4-4.7 11.4-7.7-5.4 4.6-11.4zm-234.4 126.3 2.3 9.7-8 4.2-2.7-11.7 8.4-2.2zm126.9-9.4 5.9 4-8.5 2.2 2.6-6.2zm120.1-41.6.2 17.9h-2.5c-1.3-.9-3.2-5.5-5.7-13.6l8-4.3zm-97.4 44.4 8.8 6.1-4.1 10-8.8-6.1 4.1-10zm-77.3 47c1.8-4.2 4.9-4.7 9.5-1.5 6.5 4.5 8.2 10.5 5 18.1l-2 1.8-15.6-10.8 3.1-7.6zm104.7 10.9c1.4.9 3.1 1.3 5.2 1.2 2.2-.2 4.6-.4 7.2-.7 2.7-.3 5.2-.7 7.5-1.3 2.3-.6 4.2-.5 5.4.5 2.6 1.8 4.1 6.1 4.7 13l-16.5 6.4-4.9-3.4c-5.9-4-8.8-9.3-8.6-15.7zm-50.9 107.5 4.9 3.4-7.5 2.9 2.6-6.3zm-628.5 896.1v12.2h-9.4v-12.2h9.4zm-55.1 12.2c4.7 1 7 5 7 12.1 0 7-2.4 11.1-7 12.1l-5.9-7.5-1.2-4.6s2.4-4.1 7.1-12.1zm9.4 186.6v12.1h-9.4v-12.1h9.4zm142.5 175.9-7.1 7.5-5.9-7.5 5.9-9.2 7.1 9.2zm-383.3-1113.4v7.7h6.8v-7.7h-6.8zm-56.2 21 .8 5.5c0 6.6-1.7 11-5 13.2-3.4-5.9-5.2-9.5-5.2-11v-2.2c4-3.7 6.6-5.5 7.7-5.5h1.7zm-178.6 258.3v7.7l-4.3-7.7h4.3zm-44.3-37.4v8.8h-6.8v-8.8h6.8zm44.3 74.9c3.4 1.5 5.1 5.2 5.1 11.1v7.7l-9.4-13.2 4.3-5.6zm-51.2-5.5c3.4 2.2 5.2 5.9 5.2 11 0 8.8-2.9 13.2-8.6 13.2h-1.7v-16.5c0-4.3 1.7-6.9 5.1-7.7zm263.8 816.9-5.1 5.5-4.2-5.5 4.2-5.5 5.1 5.5zm-345.2-56.1v8.8h-6.8v-8.8h6.8zm-48.5 84.8v7.7l-4.2-7.7h4.2zm6-646.2 6.5 7.8 6.8-9.5-6.5-7.8-6.8 9.5zm76.4 466c.6 3.4-.3 6.7-2.8 10.3-2 2.7-4.8 5.2-8.4 7.4-3.7 2.2-8.3 3.7-13.9 4.7l-.3-10.2c.4-2.1 1-3.4 1.5-4.1 1-1.4 1.5-2 1.5-2 2.4-3.5 9.9-5.6 22.4-6.1zm-16.9-165.1-6 8.3-7.2-8.8 6-8.4 7.2 8.9zm-81.7-12.7-6.1 8.4-7.2-8.8 6-8.4 7.3 8.8zm11.5 137.1c2.1-1.4 2.1-.8.1 2.1-2 2.8-5.5 7.6-10.5 14.6-4.6 6.2-9.2 8.4-13.9 6.6l-.3-12.1 3-4.1c1-1.4 3.5-2.7 7.4-3.9 3.7-1.2 8.5-2.3 14.2-3.2zm-45.8-462.3-7.9.3-1-11.1 9.4-.5-.5 11.3zm-25.6 161-4.4 6.2.5-11.1 3.9 4.9zm549.7-1179.6v9.1l-7-9.1h7zm-41.8 38.1v12.2h-9.4V1006h9.4zm-25.8-33.4v12.1h-9.4v-12.1h9.4zm-29.3 45.5c4.7 1 7.1 5.1 7.1 12.1 0 7.1-2.4 11.1-7.1 12.2l-5.9-7.6-1.2-4.5c.1 0 2.5-4.1 7.1-12.2zm129.6 88.3-12.8 7.6v-3.1c0-1 2.3-5.5 7-13.6l5.8 9.1zm18.7 57.7v7.6l-5.9-15.2 5.9 7.6zm-28.1-21.2v13.7h-9.4v-13.7h9.4zm-20.9 145.1v12.2h-9.4V1288h9.4zm-61-79.6-5.9 9.2-7-9.2 7-7.5 5.9 7.5zm-99.7-8.3c1.5 0 5.1 2.9 10.5 9l-7 7.6c-4.8-7.1-7.1-11.6-7.1-13.7l1.2-2.9h2.4zm6.9 94.6 1.2 4.5c0 2-2.4 6.1-7.1 12.2l-5.8-7.6c4.7-6 8.3-9.1 10.5-9.1h1.2zM1959 1328l-20 16.7 12.9-24.2 7.1 7.5zm-158.3-219c4.7 8.1 7 12.7 7 13.7l-1.2 3-12.9-16.7h7.1zm-12.9 166.8-13 7.6 13-16.7v9.1zm-150.1-25.7c6.3 0 9.4 5 9.4 15.1 0 12.1-4.7 21.3-14.1 27.3-3.9-4.1-5.9-9.1-5.9-15.2v-18.2c6.3-6 9.8-9 10.6-9zm839.4-89.8 6.5 7.8 6.8-9.4-6.4-7.8-6.9 9.4zm117.9 408.5-4.5 6.3-.3-12.1 4.8 5.8zm-174.5-445.5-7.8.4-1.1-11 9.4-.4-.5 11zm-25.5 161-4.5 6.2.5-11.2 4 5zm-7.8 27.6-6.8 9.4-6.5-7.8 6.8-9.4 6.5 7.8zm-15.4-108.6c2.7 3.3 2.2 7.3-1.3 12.2-5 7-10 7.5-14.8 1.7l-.9-3 12.1-16.7 4.9 5.8zm-35 128c-1.1 1.4-1.7 3.4-2.2 6.2-.4 2.7-1 5.7-1.4 9.1-.5 3.4-.7 6.7-.9 9.7-.3 3-.8 5.2-1.7 6.7-2.1 2.7-5.7 3.6-11 2.4l-.5-22.3 3.7-5.2c4.6-6.1 9.3-8.4 14-6.6zm-67.3-91.1-3.7 5.2-.3-10.1 4 4.9zm542.2 1390.5c1.2 5.7-.8 9.4-5.7 11.1-3.3 1.2-5.9-.3-7.9-4.1l5.9-14.6c4.8 3.7 7.4 6.2 7.7 7.6zm-40.4-7.7-1.2-6.4 5.3 5-4.1 1.4zm-55.5-12.9-5.8 1.9 4.7-7.3 1.1 5.4zm16.6-65-6.6 2.2-1.8-8.5 6.6-2.2 1.8 8.5zm-44.7 74.5c-.2 4.7-2.5 7.7-6.9 9.2l-5.7 2 7.4-15.1 5.2 3.9zm-9-65.2c-.8 4.8-3 7.9-6.9 9.2-6.6 2.2-10.6-.1-12.1-7.2l-.5-2.2 12.3-4.2c3.5-1.3 5.8.2 7.2 4.4zm-84.2 79c-3.5 5.7-5.8 8.8-7 9.2l-1.8-.5 3.3-13.7 5.5 5zm-351-1653.9c-.1-3.3 1.4-5.5 4.8-6.6 3.4-1.2 5.5-.3 6.7 2.6l-2.4 6.8-1.5.5c-1.5.5-4-.7-7.6-3.3zm43.7-82.5 5.7-1.9 1.5 7.4-5.7 1.9-1.5-7.4zm-5 69.2 1 1.6c.7 3.1-.7 5.2-4.1 6.3-3.7 1.3-6.6 0-8.4-4l11.5-3.9zm-16.2 52.1 5.7-2 1.5 7.4-5.7 2-1.5-7.4zm19.9 14.9 5.7-1.9 1.5 7.4-5.7 2-1.5-7.5zm-11.5 25.8 5.7-2 1.5 7.5-5.7 1.9-1.5-7.4zM2561 906l4.1-1.4-2.8 7.8-1.3-6.4zm-81.4 196.7 5.8-2-4.5 8.4-1.3-6.4zm26.7-59.4c1.3-5 4.1-8.3 8.5-9.7 3.9-1.3 7.3-.2 10.4 3.3l-3.6 8.1-4.9 1.6c-3.9 1.4-7.4.2-10.4-3.3zm66-103.5c7.1-2.4 11.4-5.8 12.9-10.2l5.2 3.9c-.8 4.8-2.8 7.8-6.1 8.9l-10.8 3.7-1.2-6.3zm-25.5 64.6 1.6-.5c1.1-.4 4.3.8 9.5 3.5l-4.7 7.3c-4-5.4-6-8.2-6-8.2l-.4-2.1zm-72 169.5c1.4 1.1 3.5 1.5 6.4 1.2 2.8-.3 5.9-.4 9.2-.3 3.2 0 6.3.5 9.1 1.4 2.8.9 5.1 2.6 6.8 5.1l-3 6.7-28.8-15.3.3 1.2zm111.5-183.1 3.3-1.1c3.8-1.3 6.7 0 8.7 3.8l-3 6.7-12.3-8.2 3.3-1.2zm-63.8 153.1 1.8.5c1.1-.4 3.2-3.3 6.1-8.9l7.4 10c-3.5 5.8-5.5 8.8-6.1 9l-2.8-.2c-4.3-3.9-6.6-6.5-6.9-7.9l.5-2.5zm-27.8 97.3c3-5.5 5-8.6 6.1-9 3.9-1.3 6.4 1.3 7.8 7.6.7 3.6-.4 7-3.2 10.3l-10.7-8.9zm121.2-235.4c2.5-10.8 7.3-17.3 14.4-19.8l4.6.7c-.7 5.6-2.4 10-5.2 13.2-2.8 3.3-6 5.1-9.4 5.5l-4.4.4zm-172.7 396.7 5.7-2-1.7-8.5-5.8 2 1.8 8.5zm221.3-447.6 6.6-2.2 1.7 8.5-6.6 2.3-1.7-8.6zm-21.8 91.9c.8-4.8 2.6-7.8 5.3-8.6 3.4-1.2 6.2.1 8.8 3.8l-4.4 8.4-1.7.5c-.7.2-3.2-1.2-8-4.1zm28.8 2.7 7 4.4-7.7 14-5.2-3.9 5.9-14.5zm-112.7 250.7 3.3-1.2s2.7 1.4 7.9 4.2l-3.1 6.8c-5-4.4-7.5-6.9-7.7-7.6l-.4-2.2zm92-162.7c2.4-5.4 6.6-9.1 12.6-11.2 7.2-2.5 11.3.3 12.3 8.4l.3 1-13.2 4.5c-4.4 1.6-8.4.7-12-2.7zm33.6-54.9c3-5.6 4.8-8.4 5.4-8.6l1.6-.6-1.8 13.1-5.2-3.9zm33.2-48.9 1.3 6.4-5.4-5 4.1-1.4zm-156.7 341 1.4-1.6c4.5-1.5 7.4 1.2 8.8 8.4l.4 2.2-4.1 1.4c-4.3-3.8-6.7-6.5-6.9-7.9l.4-2.5zm126.2-240.5 7.4-2.5 2 9.6-7.4 2.5-2-9.6zm-18.6 60 2.5-.9c.5-.2 1.4.1 2.3.9 1 .7 2.5 1.6 4.5 2.5l-2.8 7.7c-4-4.7-6-7.4-6.1-8.2l-.4-2zm42.4-77.3c1-4.1 2.2-6.5 3.9-7 2.2-.8 5.6-.1 10.2 2.2 4.6 2.2 7.7 3.4 9.5 3.5l-3.1 6.8c-.9 1.1-1.7 1.7-2.3 1.9-.5.2-1 .3-1.6.6-2.7.9-8.3-1.7-16.6-8zm-40.9 123.4 7.4-2.5 1.7 8.5-7.4 2.5-1.7-8.5zm-79.7 275.5c2.1.4 3.7 1.6 4.7 3.5l-3.1 6.7c-14.6-7.6-33.1-16-1.6-10.2zm162.9-325.6c3.4-.5 7.3-.4 11.5 0 4.2.5 9.1 1.6 14.8 3.5-1.5 4.3-4.5 7.2-8.8 8.7l-4.1 1.4s-.7-.3-2.1-1c-1.3-.8-3.2-1.7-5.9-3.1-2.8-2.1-4.5-4.9-5.3-8.5l-.1-1zm-33.8 101.7 7.4-2.5 1.8 8.5-7.5 2.5-1.7-8.5zM2615 1574l1.3 6.4-5.4-4.9 4.1-1.5zm180.5-358.3 7.4-2.5 1.9 9.5-7.4 2.6-1.9-9.6zm-37.5 109.7 6.5 10.3-2.3 1.9s-2.3-1.5-7.1-4.4l2.9-7.8zm-38.2 84.9 5.8-2 1.7 8.5-5.7 2-1.8-8.5zm18.5 59.9c.8-4.8 3.1-7.9 7-9.2 2.7-1 5.1.5 7 4.4l-3 6.8-1.4 1.6c-.6.2-3.8-1.1-9.6-3.6zm21-43.7c-1.7-8.5 2.4-14.5 12.2-17.8 4.3-1.5 8.5-1.1 12.6 1.4-.4.9-1.1 2.7-2.1 5.3-.9 2.6-2 5.2-3.2 7.9-1.2 2.7-2.6 5.3-4.2 7.7-1.6 2.5-3.2 3.9-4.8 4.5 0 0-.3 0-.8.3-.6.2-1.8.2-3.6.1-3.5-4.2-5.6-7.3-6.1-9.4zm-31.7 103.2c2.5-5.4 4.2-8.2 5.3-8.6l2.7.2-8 8.4zm45.2-58.8c1.4-5.1 4.2-8.4 8.6-9.9 3.8-1.3 7-.1 9.5 3.6l-3.1 6.7-5.7 2c-4.3 1.6-7.5.7-9.3-2.4zm-.7 56.7c1.4-1.6 2.8-3.2 3.9-4.7 1.2-1.6 1.9-3.1 2.1-4.7l6.5 10.2c-8.5 6.4-30.6 18.7-12.5-.8zm20.5-41.8 6.6-2.3 1.8 8.5-6.6 2.3-1.8-8.5zM2443 1016.1c-1.7 2.9-3 5-3.5 6.4-.6 1.3-1.3 2.1-1.8 2.3l-2.6-.2 2.7-12.3 5.2 3.8zm9.8-21.6c-5.2 1-11.8-1.6-20.2-8l-.6-3.2c.8 1.3 2.3 2.1 4.4 2.5 2.2.5 4.5.8 6.8 1.1 2.4.4 4.4.8 6 1.4 1.6.6 2.6 1.9 3.1 4.1l.5 2.1zm-37.6-45.3c.1.8-.6 4.4-2.2 11-3.4.5-5.7-1.9-6.7-6.8-.7-3.5.4-7 3.2-10.2l5.4 5 .3 1zm897.3 746.1-7.4-10.1 6 3.6 1.4 6.5zm8.5-96.4c.1 3.7-1.7 6.3-5.6 7.6-3.8 1.3-6.3.3-7.6-3.1l2.8-7.8 1.7-.6c1.6-.5 4.5.8 8.7 3.9zm-50.3 94.8-6.6 2.2-1.7-8.5 6.6-2.3 1.7 8.6zm5.7-79.5-1.2-1.9c-.8-3.5.8-5.9 4.6-7.3 4.5-1.5 7.7 0 9.7 4.7l-13.1 4.5zm18.6-60-6.5 2.3-1.8-8.5 6.6-2.2 1.7 8.4zm-22.9-17.2-6.6 2.2-1.7-8.5 6.6-2.3 1.7 8.6zm13.3-29.7-6.6 2.3-1.7-8.5 6.6-2.3 1.7 8.5zm9.7 1135.2-6.6 2.3-1.7-8.6 6.6-2.2 1.7 8.5zm-75.9-39.1-5.7 2 4.7-7.3 1 5.3zm-17.5-21.3-5.9 1.9-1.7-8.5 5.8-1.9 1.8 8.5zm502.1-136.6-4.2 10.1 8.8 6.1 4.1-10-8.7-6.2zm-275.2 252-5.8-4 9-3.5-3.2 7.5zm-20.2-26.9-7.7-5.4 4.7-11.3 7.7 5.4-4.7 11.3zm-33.3-10.2c-2.3 1.7-5.2 1.3-8.4-1-2.7-1.7-5.2-4.6-7.8-8.6-2.5-3.9-4.8-9.3-7-16.3l7.5-3c1.6.1 2.8.4 3.4.9 1.3.9 2 1.3 2 1.3 3.2 2.3 6.6 11.2 10.3 26.7zm119.1-63.4-7.9-5.4 4.7-11.3 7.9 5.4-4.7 11.3zm-11.6-105.3-7.7-5.4 4.7-11.3 7.9 5.4-4.9 11.3zm-99.5 49.4c1.5 2.2 1.1 2.4-1.6.6-2.6-1.7-7.1-5-13.6-9.5-5.8-4-8.6-9.3-8.6-15.6l9-3.5 3.9 2.7c1.4.9 2.9 3.7 4.7 8.2 2 4.4 4.1 10.2 6.2 17.1zm333.9-175.7-2.3-9.7 8-4.1 2.7 11.5-8.4 2.3zm-126.9 9.3-5.8-4.1 8.4-2.2-2.6 6.3zm-120.1 41.6-.1-17.9 2.4.1c1.4.9 3.2 5.4 5.7 13.7l-8 4.1zm97.4-44.4-8.8-6.1 4.2-10.1 8.8 6.1-4.2 10.1zm77.3-46.9c-1.7 4.1-4.9 4.6-9.5 1.5-6.4-4.5-8.2-10.6-5-18.1l2.1-1.9 15.6 10.8-3.2 7.7zm-104.7-11c-1.4-.9-3-1.3-5.2-1.2-2.2.1-4.6.4-7.2.7-2.7.3-5.2.8-7.5 1.4-2.3.5-4.1.4-5.4-.6-2.5-1.8-4.2-6.1-4.6-13l16.5-6.4 4.8 3.4c5.9 4.1 8.8 9.4 8.6 15.7zm50.9-107.5-4.9-3.4 7.5-2.9-2.6 6.3zm-295.3-1002.8c1.3-5.1 4.6-8.5 10.2-10.4 7.2-2.4 12.7.2 16.6 8-2 4.5-4.2 7.1-6.3 7.8-2.7 1-6.5.4-11-1.9-4.5-2.2-7.7-3.3-9.5-3.5zm19.2 55 7.2 4.4-4.7 7.3-5.2-3.9 2.7-7.8zm15.6-48.7c.8-1.8 2.1-2.9 3.7-3.5 6.7-2.2 13.3.5 20.1 8l-2.8 7.8-21-12.3zm-12.5 106.9c-.1-.7.7-4 2.4-10 3.6.3 5.8 2.6 6.7 6.8.8 4.3-.2 7.7-3.2 10.2l-4.5-4.2-1.4-2.8zm27.9-40.4 5.7-1.9 1.8 8.5-5.9 1.9-1.6-8.5zm-5 36c.2-4.7 2.2-7.7 6.1-9 3.3-1.1 6 .3 7.9 4.1l-3.1 6.8-2.2 1.9c-.6.2-3.5-1.1-8.7-3.8zm21.7 54.2c-.3-4.5 1.1-7.2 4.4-8.4 2.8-.9 5.7.4 8.7 3.9l-4.6 7.3-1.5 1.6s-2.3-1.6-7-4.4zm25.5-8.8c2.1-4.5 5.5-7.6 10.5-9.3 8.2-2.8 14.4-1.2 18.6 5 .7.5-4.2 2.5-14.6 6.2-6 2.1-10.9 1.4-14.5-1.9zm-42.5 128.5 7.5-2.5 1.9 9.6-7.4 2.5-2-9.6zm32.7-81.8c1.2.3 3.2 0 5.9-.9 1-.4 2.4-1.2 3.9-2.5 1.6-1.3 3-2.7 4.5-4.3 1.4-1.7 2.8-3.1 4.4-4.5 1.5-1.2 2.8-2 3.9-2.5 0 0 .3 0 .8-.3.6-.1 1.7-.2 3.5 0 3.2 4.2 5.1 7.8 5.7 10.6.3 1.4-.5 2.5-2 3-1.7.6-4.4.9-8.1 1.1-3.8.2-6.2.5-7.4.9-3.9 1.3-6.2 4.4-6.9 9.2-4.8-3.7-7.5-6.6-8-8.7l-.2-1.1zm49.3-81.9 5.8-2 1.7 8.5-5.8 2-1.7-8.5zm-56.6 158.5 5.5 5-3.1 6.8-5.2-3.9 2.8-7.9zm-30.7 69.8 6.6-2.2 1.7 8.5-6.6 2.3-1.7-8.6zm62.8-55.7c.5-8.5 4.4-14.1 11.5-16.6 5.5-1.8 9.7-1.4 12.6 1.5-.5.2-1.4 1.2-2.4 3.1-1.1 1.9-2.5 3.9-4.1 5.9-1.7 2.1-3.4 4-5 5.7-1.7 1.8-3.1 2.8-4.2 3.2-2.1.7-5-.2-8.4-2.8zm15.2 31.3 9.8-3.4-3.4 13.7c-3.7-4-5.8-6.7-6.1-8.2l-.3-2.1zm-2 63.4 5.7-2-4.7 7.3-1-5.3zm111-211.4c.7-4.8 3-7.9 6.9-9.2l4.1-1.4-9.9 15.9-1.1-5.3zm-93.4 232.7 5.7-2 1.7 8.5-5.7 2-1.7-8.5zm144.9-170.5 7.4-2.6-.9 12.8c-4.4-4.5-6.7-7.2-6.9-7.8l.4-2.4zm-1.6 43.9c.3-4.6 2.9-7.4 7.9-8.5l5-1.7-7.5 15.1-5.4-4.9zm-13.4 98.1 4.9-1.7-3.8 7-1.1-5.3zm35.7-62.5c-.1-3.7 1.2-6 3.9-7 6-2.1 9.7.1 11 6.5l-.4 2.4-5.7 2.1c-3.9 1.2-6.8 0-8.8-4zm105.4 782.8c-7.7 2.7-12 6.1-12.8 10.2l-5.2-3.9c.2-4.6 2.2-7.7 6.1-9l10.8-3.7 1.1 6.4zm-19.8-24-5.4-5 3-6.8 6.1 3.7-3.7 8.1zm23.6-95.9-1.1-5.3 6 3.6-4.9 1.7zm27.8-57.4c.1.7-.8 4.4-3 11.2l-11.5-8.6 3.1-6.7 1.7-.5c.5-.3 1.4.1 2.8.7 1.4.7 3.2 1.4 5.7 2.1l1.2 1.8zm-57.6 123.5-4.1 1.4 3.1-6.8 1 5.4zm-38.1 46.2c.5 2.1-.4 6.2-2.7 12.2l-5.5-4.9c1.8-2.8 3-5 3.5-6.4.6-1.4 1.3-2.1 1.7-2.3l2.8.2.2 1.2zm67.3-162.3c-3 5.6-4.8 8.5-5.3 8.7l-2.5.8 2.5-13.3 5.3 3.8zm-59.8 108.3 3.5-8.1 5.5 5-9 3.1zm48.1-79.2c1.2 5.7-.2 9.2-4.1 10.5-.5.2-2.5.1-5.8-.3-3.2-.4-8-1.1-14-2.1l10.5-21.8 1.5-1.6c1-.5 3.9.9 8.6 3.8 1.1 2.6 1.9 4.7 2.1 6.1.6 2.3 1 4 1.2 5.4zm57.9-156.6-11.5-8.6 3.9-7 4.2-1.4c3.5-2.8 6.8-2 10.1 2.2l-6.7 14.8zm-39.7 72.9-7.4 2.5-1.8-8.5 7.4-2.5 1.8 8.5zm-55.5 117c.4 1.4-.6 5.5-2.7 12.4l-11.5-8.7 2.8-7.7 1.7-.6c.5-.1 3.4 1.2 8.7 3.9l1 .7zm106.5-233.7c1.2 5.7-.5 9.3-4.8 10.8-2.7 1-7.7-1.5-14.7-7.5.7-4.8 3-7.9 6.9-9.2l5.7-2c4.3 3.9 6.6 6.5 6.9 7.9zm-147.9 315.2-7.4-10.1c7.9-10.3 11.5-15.4 11-15.2 2.2-.7 4.1.1 5.8 2.6l-9.4 22.7zm78-182.9c.8 4.3-.6 7-4.5 8.4-5.5 1.9-9-.7-10.4-7.8l.6-1.4 13.2-4.5 1.1 5.3zm-81 121.3-1.7.5s-2.8-.9-8.4-2.8l2.8-7.8c4.5 4.5 6.8 7.2 6.9 7.9l.4 2.2zm23.5-70.8c-8.2.5-14.1 1-17.8 1.5-3.7.5-5.6.8-5.6.8-5.5 1.9-9.5 5.2-12.1 9.8l-6-3.6c1.2-8.7 5.5-14.4 13.3-17.1l15.6-5.4s.6.5 2.1 1.5c1.4 1.1 3 2.1 4.6 3.1 1.7 1 3 2 4.1 3.1 1.2 1.1 1.9 2.4 2.1 3.8l-.3 2.5zm-59.1 64.7-3 6.7 1.7-13.1 1.3 6.4zm104.4-269.5c1.2 5.7-.1 9.2-4 10.5-5.5 1.9-8.9-.4-10.2-6.7l-.5-2.2c3-5.5 5-8.6 6.1-8.9l1.8.4c4.2 3.1 6.5 5.4 6.8 6.9zm-124.1 229.5-6.6 2.2-1.8-8.5 6.6-2.3 1.8 8.6zm65.9-182.2-11.5-8.6 3.8-7.1 11.5 8.6-3.8 7.1zm-83.1 85.4-9 3.2 7.7-9.5 1.3 6.3zm31.6-104.3-7.4-10 6 3.6 1.4 6.4zm-41.8-1.6-6.6 2.3-1.7-8.5 6.5-2.3 1.8 8.5zm5.7-79.6-1.2-1.7c-.6-3.6.8-6.1 4.7-7.4 4.3-1.5 7.6 0 9.8 4.6l-13.3 4.5zm18.6-59.9-6.6 2.2-1.7-8.5 6.6-2.3 1.7 8.6zm-22.9-17.2-6.6 2.2-1.8-8.5 6.6-2.2 1.8 8.5zm-955.8 834.5c20.1.3 40 .6 60 1.1l-7.4-6.2 3-6.7 1.5-1.6c.5-.2 3.1 1.2 7.9 4.1l.4 2.2c.2.6-.4 3.4-1.5 8.3 123.2 2.7 246.5 8.4 369.7 17-5.2-13.9-10.1-27.9-16.8-41.1-39.7-78.6-113.7-177.5-149.4-263.1-.4-27-28.8-91.5-42-112.5-4.5-7.2-9.9-15.1-17.7-22.6-98.4-15.2-132.9 46.7-161.3 59.2-3.5 1.5-6.2.2-7.7-3.6-2.3-5.5-4-7.5-11.7-13 .1 5.8-19 25.6-22.4 41.1-5.5 25.2-42.6 60.2-42.1 89.1.7 61.9-9 198.8 37.5 248.3zm-291.3 1.8c64-1.7 128.1-2.5 192.1-2.5-7.1-31.9-13.2-83.1-13.5-108.1-1.2-82.9-31.6-72.4-19.5-161.6-.6-42.5-11.4-83.7-12-126.2-.4-28.9-10.9-70.4-39.1-68.7-19.1 1.2-40 2.8-54.6 3.4.4 32.8-78.4 45.7-98.4 73.9-13.8 19.3-72.4 119.3-72 138.5 1.2 79.2 21.6 157.5 68.7 217.6 5.7-.3 13.6 7.2 17.4 7 3.9-.2 14 20.6 19.6 21.7 2.9.7 6.9 2.4 11.3 5zm-392.3 16.8c83.8-4.8 180.8-8.5 250.5-11.7l.6-1c.4.3.7.6 1.1.9 2.5-.1 5-.3 7.5-.4-11.4-23.3-14.6-53.8-28.3-80.3-28.2-55.1-47.2-116.5-52.4-141.6-5.2-25.1-3.6-33.2 21.4-87.2 27.9-60.1 19.9-70.6 20.3-131 .1-12.5-.1-25.4-.3-38.7.2 12.8-2.5 29.4-16.4 36.6-60.6 31.4-145.5 49.8-203.2 84 .5-.9 1-1.8 1.5-2.8 2.9-5.2 4.3-9.2 4.3-12.1 0-2.2-1.4-4.4-4.3-6.6-6.8 8.8-10.2 15.1-10.2 18.8v2.2c0 .7.3 1.8.8 3.3l1.2 1.5c-23.4 14.9-41.7 32.9-50.8 55.9-20.8 52.5-28.8 234.6 10.4 279.5 6.4 3 38.4 18.3 49.1 30h-3v.7zm-19.6 1.1c1-.1 1.9-.1 2.9-.1 2.1-1.7 3.1-4.2 3.1-7.6 0-5.2-1.7-8.5-5.2-9.9-3.4 5.9-5 9.2-5 9.9l.8 3.3 3.4 4.4zm-50.2 3.4c3.3-.2 6.7-.5 10.1-.8-.1-4-1.9-6.3-5.1-7-3.4 5.2-5.1 7.7-5.1 7.7l.1.1zm-29.2 2.3c.6 0 1.2-.1 1.7-.1v-.1h-.8c-.2 0-.5.1-.9.2zm-518.5 74.5c116.3-19.9 232.5-36.6 348.7-50.4h-4.1v-7.6h6.8v7.4c30.4-3.6 60.8-7.1 91.1-10.3 1.5-4.1 20.7-7.7 50.8-11-2.7-3.5-5.2-6.5-6.4-8.1-8.8-12.1-27.7-28.6-26.6-46.3h6.9v-10h-6.1c-.6-89.2 16.6-182.3 15.3-269.5-.7-50.2 96.9-140.4 73-170.9 0 0-9.1-13-14.7-7.1-22.6 24-37.5 36.7-70 44 5.2-14.2-5.2-14.2-26.8-9-47.6 11.6-82.6 15.7-129.5-21 30.8-1.2 115.4-65.9 114.9-98.7 12.4 2.4-10.4-29.1-15.1-31.8 36-14.3 33.9-22.5 66.1-45.5 8.8-6.2 11.7-27.9 17.4-35.8-11.9 2.4-23.9 3.9-35.6 4.7.2-1.1 18.2-12.2 20.1-15 4.5-6.5 13.1-12.7 19.9-19.1.3-2.2 1.2-3 3.8-3.9 1.8-1.9 2.9-4.4 4.5-5.8 91-80.7 123.6-202.9 179.3-235.6 103.8-60.9 155.2-108.1 249.3-106 63.8 1.4 212.3 37.1 290.3 24.8 27.5-1 108.7-8.8 170.9-18.3l.7 3.6 2.7-4.2c20.1-3.1 38-6.5 51.2-9.7 30.8-7.6 49.4-12.6 66.7-15.4-.1.2-.3.3-.3.5l5.4 4.9 1.6-6.4c19.7-2.4 39.7-1.9 76.8 1.5 59.4 5.3 85.3 87.9 154.2 111.1 2.2-8.7 7.7-15 7.9-17.4.3-3.8 6.3 2.3 6.8 2.9 5.4 5 21.3 19.5 27.2 23.7 7.3 5.4 19 13 27.1 13.6 1.6.1 3.8.7 6.3 1.5 5.6.1 7.1-6.6 11-9.5l5.4 3.2c11.7 24.2 28.9 62.3 114.2 94.7 23.7-3.4 49.8-8 73.8-7.3 6.1.2 18.1.6 22.3.1 8.5-.9 1.6 16.7.1 20.2-4.1 10.6-11.4 24.1-14.2 31.1 8.8 4.6 24.8 19.5 39 29l-8.1 2.8c-7.7 2.6-12.1 8.3-13.2 17.1l6 3.6c2.6-4.7 6.6-8 12.1-9.9 0 0 1.9-.2 5.5-.8 3.7-.5 9.6-1 17.7-1.5l.5-2.5c-.1-.2-.1-.4-.2-.6 38-3.7 86.9 20 123.8 33.5-35.3 43.5-89.9 27.6-110 78.7-9 22.9-7.9 61.6-18.3 88-8.3 21.1-25.9 35.3-32.1 51.2-24.4 62.1-.7 150.6-25.6 219.9-17.4 7-42.8 18.6-50.8 14.4-39.2-20.4-20.4 2.9-47.9-28.8-5.5-6.4-11.4-13.2-17-19.7.5.1 1 .4 1.7 1 1 .8 2.3 1.7 3.6 2.7 1.5 1 3 2.1 4.7 3 1.7 1 3 1.3 4.1.9 2.8-1 4.1-3.7 3.7-8.1l-1.1-5.3-16.8 5.7c-9.1-10.6-17.5-20-22.7-24.6l2.1-4.6-1-5.4-1.5 9.7c-.7-.6-1.3-1.1-1.9-1.6-18.5-13.3-49.7-35.1-65.3-51.1-16.6-17-53.1-20-78.3-10.5.8-23-5.5-43.7-15.7-61.5-3.3 9.2-5.7 16.4-6.6 19.5-12.4 43-37 135.6-36.4 176.2.9 63.7 62.3 165 91.5 226.6 14.6 31 78.1 67.1 96 96.2 152 13.4 304 31.3 455.9 53.3l1.5-4c1.6 1.9 2.8 3.5 3.7 4.8 34.8 5.1 69.8 10.3 104.6 15.8 20.8 0 12.4-70.6 20.8-87.1 6.2-12.4 14.4-24.8 21.1-39.3-16.9-1-44.7-3.4-44.7-5.9 0-21.7-65.1-18.6-83.6-18.6h-80.6c-37.2 0-31-9.3-43.3-21.8-12.5-12.4-114.7 12.5-102.3-12.4 3-6.2 31-6.2 40.2-6.2 34.1 0 71.3-3.1 102.3-3.1 43.4 0 93 0 136.3-6.2 23.8 0 58.8-2.8 88.9-3.1 1.8-17.2 5.6-32.4 11.3-49.5 0-16.6 16.6-136.9 24.9-145.3 24.9-24.9 16.6-99.6 16.6-145.2 0-30.3-3.6-63.1-8.6-96.6-2.4-.2-4.4-.8-6.2-1.7l4.8-7.2c-12.2-78.8-31.5-161.4-31.5-226.5 0-20.7-87.1-70.6-53.9-103.8 4.1-4.1 16.6-20.7 8.3-29 0 0-2.8-11.2-5.8-23.4-1.4 4.4-4.7 7.5-10 9.4-6.6 2.2-12-.1-16.4-6.9 2.1-10.6 7.1-16.9 15.5-19l4.3-.4c1.3 1.2 2.3 2.2 3.3 3.1-1.9-8.4-3.4-15.3-3.4-16.7 0-12.5-20.8-58.1-29.1-66.4-4.1-4.1-16.6-33.2-16.6-37.3-8.3-16.6-24.9-37.3-33.2-58.1 0-8.3-33.2-45.6-33.2-53.9 0-12.4-24.9-33.2-29-41.5-4.1-8.3-20.8-24.9-20.8-37.3 0-8.3-4.1-8.3-8.3-12.4-16.6-16.6-24.9-24.9-58.1-24.9-62.2 0-58.1-87.1-83-112-24.9-24.9-78.8-53.9-107.9-83-4.1-4.1-74.7-49.8-78.8-49.8-8.3 0-120.4-70.5-141.1-78.8-29 0-53.9-20.8-66.4-33.2-12.4-12.5-41.5-24.9-62.2-33.2-37.4-16.6-103.8-24.9-141.1-41.5-29.1-12.4-74.7-16.6-107.9-20.7-29 0-66.4-24.9-99.6-24.9-37.3 0-78.9 4.2-116.2 4.2-70.6 0-145.3 4.1-207.5 12.4-15.1 0-29 2.6-41.9 6.8l5.9 8.1-5.2-3.2-1.1-4.8c-33.2 10.8-60.8 32.1-90.6 47-29 12.5-103.7 16.6-145.3 16.6-12.4 0-66.4 49.8-74.7 58.1-20.7 20.8-91.3 49.8-128.6 66.4-4.2 4.1-78.9 33.2-78.9 33.2s-10.7 7.8-23.2 16.7c33.9.2 69.5 1.6 105 1 30.1-.4 29 8.7 33.7 15.1.5-1.4 1.1-2.8 1.5-4.3 1.6-4.6 3.4-8.9 5.3-12.9 2-4.1 4.3-7.6 7-10.6 2.8-3.1 5.7-4.6 8.8-4.6.8 2 1.2 5.5 1.2 10.6 0 5.6-2.3 14.8-6.8 27.6h1.9c8.4-.1 17.9.3 28.1 1l-4.5-5.8 5.9-9.1 7 9.1-5.5 6c38.2 2.7 85.7 9.4 124 8.8 52.8-.9 111.6 10.6 164.3 9.7-27.9 34.6-148.7 2.4-198.3 3.2-46.5.8-117.8-4.2-155 14.9-18.6 9.6 62 14.5 43.4 24.2-12.1 5.7-32.8 8.4-56.4 9.6l-.8 5.5c-.6-1.4-1.4-3.1-2.3-5.4-10.6.5-21.8.6-33 .6v4.7h-9.4v-4.7c-30.1-.3-59.4-1.5-77.9-1.3l-89.2.6c-10.1 8.5-19.8 18.1-28.3 26.6-20.8 20.7-58.1 70.5-78.9 103.7l-37.3 37.3c-4.1 8.3-24.9 24.9-24.9 33.2 0 16.6-24.9 62.2-33.2 78.8-8.3 16.6-20.8 33.2-29 49.8-12.5 24.9-54 70.6-74.7 99.6 0 41.5-41.5 87.1-41.5 124.5 0 12.5 0 33.2-4.1 41.5-3.5 7.2-22.5 35.9-27.7 46.4l13.5 50.1c-8.8-4.8-15-10.9-18.8-18.6-.1.7-.2 1-.2 1-4.1 16.6-12.5 37.3-16.6 53.9 0 15.2.9 32.4 1.2 49.7 10.9 26.4 54.3 21.7 94.3 18.3 1.2-1.2 2-1.8 2.3-1.8 2 0 3.7.5 5.2 1.2 10.6-.8 20.7-1.4 29.7-1.1-.1 0 0 0-.1-.1v-16.5c0-5.9 1.4-10.3 4.3-13.2 6.8 3.6 10.3 8.8 10.3 15.4 0 5-1.7 10.1-4.8 15.1 9 1.1 16.3 3.5 21 8.2 6.2 6.2-18.6 18.6 12.4 18.6 43.4 0 117.8 12.5 155 12.5 3.2 0 5 .5 5.5 1.2l2.1-2.8 4.9 5.9c2.6 3.3 2.2 7.4-1.3 12.2-5 7-10 7.5-14.8 1.6l-.9-3 6.9-9.5c-1.3.9-2.8 1.7-4.5 2.6l.1.1-5.2 5.5c-.6-1-1.1-1.9-1.6-2.7-6.4 2.4-13.6 4.3-19 4.3-3.6 0-7.3 0-11-.1l8.6 10.5-9.4 6.6c-4.6-10.4-7.4-16.1-8.2-17.4-9.5-.2-19.2-.7-29.2-1.1v2s-1.4 3.2-4.2 9.9l-5.1-5.5c3.9-3.8 6.3-6 7.3-6.4-58.8-2.8-124.4-7.3-171.9 4.6-11.8 2.6-56.8 18.7-104.9 31.3-3.9 9-4 21.7-4 34.6 0 70.5-4.1 153.6-4.1 228.3v.6h2.3l4.3 5.5-6.6-3.9c.5 20.3 8.3 44.3 8.3 68.4 0 29 0 53.9 12.4 78.8.2.4.4.8.6 1.1h1.7v3c8.1 14 18.4 22.6 18.4 41.5.2 65.3 35 115.8 62.4 174.5zm1871.4-742.7-6.6 2.3-1.8-8.5 6.6-2.3 1.8 8.5zm5.1-126-4.9 1.7 3.7-7.1 1.2 5.4zm-112.4 234.7-6.6 2.2-1.7-8.5 6.6-2.2 1.7 8.5zm99.4-263.3-6.6 2.3-1.5-7.5 6.6-2.3 1.5 7.5zM2986 2175.8c.1.7-.6 4.4-2.2 11.1-3.5.4-5.7-1.9-6.7-6.9-.7-3.5.4-7 3.2-10.2l5.4 4.9.3 1.1zm158-378-6.6 2.3-1.8-8.6 6.7-2.3 1.7 8.6zm-133.6 247.6-1.1-5.3 5.2 3.9-4.1 1.4zm75.9-266.6-6.6-10.3 28 3-21.4 7.3zm24.3-62-5.5-4.9 3.1-6.7 5.2 3.9-2.8 7.7zm-116.7 235.1-6.6 2.3-1.7-8.5 6.5-2.3 1.8 8.5zm-57.6 118.9c-2.5 5.4-4.3 8.3-5.4 8.6l-1.9-.5 2-12 5.3 3.9zm140.1-327.4-6.6 2.3-1.7-8.5 6.6-2.3 1.7 8.5zM2950 2009.1l-6.6 2.2-1.7-8.5 6.6-2.3 1.7 8.6zm20.7-45.9-1.7.5c-4.9 1.7-8.1-.6-9.4-7.1l-.4-2.1 5-1.7c3.9 4.8 5.9 7.5 6 8.2l.5 2.2zm22.5-92.1c-1.3-.3-3.7 2.4-7.2 8.2l-7.4-10c3.7-5.1 5.7-7.7 6.3-7.9l1.6-.6c4.3 3.9 6.6 6.5 6.9 7.9l-.2 2.4zm51.1-138.3c-1.4 5-4.5 8.3-9.4 10-4.4 1.5-8.5.6-12-2.7l3-6.8 9.9-3.4c4.3-1.4 7.2-.5 8.5 2.9zm-100.4 190.6-4.9 1.7 3.9-7.1 1 5.4zm-28.4 46.2c-.2 4.7-2.6 7.7-7 9.2-4.3 1.5-7.8.4-10.2-3.2l3.8-7 3.3-1.1c4.9-1.8 8.2-1.1 10.1 2.1zm127.5-290-9 3.1 7.7-9.5 1.3 6.4zm-47.2 88c-1.9-.9-4.6 1.9-8 8.4l6.9-13.7 1.1 5.3zm20.6-45.8-6.6 2.2-1.8-8.5 6.7-2.3 1.7 8.6zm-122.1 222-6.5 2.3-1.7-8.5 6.6-2.3 1.6 8.5zm73.3-163.1-6.6 2.3-1.7-8.6 6.6-2.2 1.7 8.5zm-16.5 44.4c-1.3 5-5 8.5-11 10.7-6 2.1-9.8-.4-11.2-7.5-1-5.1.6-8.3 5-9.8l10.7-3.6c4.4 4.5 6.8 7.2 6.9 7.9l-.4 2.3zm-725.7 455.3-12.9 7.5v-3c0-1 2.4-5.5 7.1-13.6l5.8 9.1zm292.6 279-7 9.1-5.9-9.1 5.9-7.6 7 7.6zm-7 50v7.6l-5.9-7.6h5.9zm-366.6-247.2c1.6 0 5.1 3.1 10.6 9.1l-7 7.6c-4.8-7.1-7.1-11.6-7.1-13.6l1.1-3.1h2.4zm260.9-574.9v5.5l-5.1-5.5h5.1zm-28.1 5.5c0 9.5 1.5 15.8 4.3 18.8l-4.3 5.5c-3.4-2.3-5-5.5-5-10v-14.3h5zm-41.7 4.4v4.4c0 5.1-1.8 8.5-5.2 9.9l-4.3-5.6 9.4-13.2v4.5zm-18.8 33.1c7.4 5.9 11.1 13.6 11.1 23.1l-1.7 5.5c-4-2.2-6.8-5.5-8.5-9.8-1.7-4.4-2.3-8.9-1.7-13.2l.8-5.6zm-205.4-146.6v4.4s-1.7 3-5.2 8.8l-4.3-5.5c4.6-5.1 7.2-7.7 7.7-7.7h1.8zm-56.2-16.5.8 2.2c0 5.9-2.8 8.8-8.5 8.8h-1.7v-5.5c4-4.4 6.5-6.6 7.7-6.6l1.7 1.1zM2127.5 1838v9.9h-6.9v-9.9h6.9zm16.2 116.8c-.6 4.4-1.6 9.2-3 14.3-1.5 5.2-3.6 11.1-6.4 17.7-2.8-3-4.3-7.4-4.3-13.2v-5.5s.5-.7 1.3-2.2c.9-1.5 2.1-3.6 3.9-6.5 2.3-3 4.8-4.4 7.7-4.4h.8zm-67.4-68.3v9.9h-6.8v-9.9h6.8zm37.6 114.7v10h-7.7v-10h7.7zm-72.5-75-9.4 5.5-.8-3.3s1.6-2.6 5.1-7.7l5.1 5.5zm-53.7-69.5v7.7c-10 .1-10-7.7 0-7.7zm-156.4 33.5c.6 0 3.1 1.8 7.7 5.5l-9.4 11.1-4.3-5.5-.8-2.2c0-.7 1.7-3.6 5.1-8.8h1.7zm9.4 35.3c15.5 0 9 50.8-1.7 0h1.7zm-24.7 24.2c3.4 5.9 5 9.6 5 11.1l-.8 2.2-9.4-7.7 5.2-5.6zm-2.8 574.6-3.7 5.3-1.1-11.1 4.8 5.8zm-40.8-92.2-4.4 6.3-.3-12.2 4.7 5.9zm231.4-251.4c7.4 5.9 11.1 13.6 11.1 23.1l-1.7 5.5c-4-2.2-6.8-5.5-8.6-9.9-1.7-4.4-2.2-8.8-1.7-13.2l.9-5.5zm-37.5 23.1c3.4 2.2 5.2 5.1 5.2 8.8 0 4.4-1.7 7.7-5.2 9.9l-5.1-7.7v-2.2c0-.7 1.7-3.7 5.1-8.8zm-9.3 35.3-5.1 7.7-8.5-13.3 4.2-5.5 9.4 11.1zm-60.6-48.5c3.5 4.4 5.2 10.6 5.2 18.7 0 9.5-3.1 14-9.4 13.2h-.8v-17.6c0-5.9 1.6-10.6 5-14.3zm32.4 56.2c3.4 5.1 5.2 8.1 5.2 8.8v2.2l-9.4-5.5 4.2-5.5zm-39.2-10v9.9h-7.6v-9.9h7.6zm-40-38.5v3.2c0 .8-.5 1.7-1.3 2.9-.8 1-1.9 2.7-3 4.9l-5-5.5c4.5-3.7 7.1-5.5 7.7-5.5h1.6zm824.4-539.9-6.8 9.4-6.5-7.8 6.8-9.4 6.5 7.8zm-38.3 2.7-3.8 5.3-1-11.1 4.8 5.8zm-82.2-34.8c.6 3.3-.4 6.7-2.9 10.2-2 2.8-4.8 5.2-8.4 7.4-3.5 2.1-8.2 3.7-14 4.6l-.3-10.1c.5-2 1-3.4 1.4-4.1 1-1.3 1.5-2.1 1.5-2.1 2.6-3.3 10.2-5.4 22.7-5.9zm148.1 429c4.7 23.1-34.1 1.3-12.6-5.9l5.8-2c4.3 4.6 6.6 7.1 6.8 7.9zm69.3-186.8-6.6 2.2-1.8-8.5 6.7-2.3 1.7 8.6zm-57.5 154.2c-1.5 3.6-3.7 5.9-6.5 6.8-1.1.4-2.8 0-5.1-1.2-2.3-1.1-4.8-2.3-7.7-3.6-2.9-1.2-5.6-2.4-8.2-3.4-2.5-1-4.5-.9-6.1.4l3-6.8c1.4 1 3.4 1.5 6 1.4 2.6-.1 5.5-.2 8.8-.1 3.2 0 6.3.5 9.1 1.4 2.8 1 5.1 2.6 6.7 5.1zm14.2-73.2c-.8 4.8-2.7 7.7-5.3 8.7-3.8 1.3-6.5-.1-7.9-4.2l2.8-7.7 1.6-.6c1.1-.4 4 .8 8.8 3.8zm-29.6-27.6-1-5.3 5.2 3.9-4.2 1.4zM2499.4 2364c-7.7 2.6-12 6-12.9 10.1l-5.3-3.9c.3-4.6 2.3-7.7 6.2-9l10.7-3.6 1.3 6.4zm185.4-412.4c-.7 2.6-1.9 4.7-3.6 6.4-1.7 1.7-3.9 3.1-6.6 4-5.5 1.8-9.8 1-12.8-2.5l3.6-8.1 9.9-3.4c3.2-1.2 6.4.1 9.5 3.6zm19.9-53.6-6.6 2.3-1.7-8.6 6.6-2.3 1.7 8.6zm21.4-63.2-7.4 2.5-2-9.6 7.5-2.5 1.9 9.6zm-246.5 505.3-5.5-5 3-6.8 6 3.7-3.5 8.1zm211.9-471.8-5.4-5 3-6.7 6.1 3.7-3.7 8zm-69.7 155c-10.6-.3-18.2-6-22.8-17.2l3.6-8.2c2.8 2.1 5.7 5.3 8.6 9.6 2.9 4.4 6.4 9.6 10.6 15.8zm-118.7 220.8-1.1-5.3 6 3.6-4.9 1.7zm27.9-57.4c.1.7-.9 4.5-3.1 11.3l-11.4-8.6 3-6.8 1.7-.6c.5-.2 1.5.1 2.8.7 1.4.7 3.2 1.4 5.7 2.1l1.3 1.9zm-57.6 123.5-4.1 1.4 3-6.7 1.1 5.3zm235-522.9-5.2-3.9 2.8-7.9 6.3 4.7-3.9 7.1zm-205.9 406.9c-2.9 5.5-4.7 8.5-5.3 8.7l-2.4.8 2.5-13.4 5.2 3.9zm17.9-33.5c1.2 5.7-.2 9.2-4.1 10.5-5.4 1.9-8.9-.4-10.2-6.7l-.4-2.2c3.5-5.8 5.5-8.7 6.1-8.9l1.9.5c4.2 3.1 6.4 5.4 6.7 6.8zm-29.5 62.6c1.2 5.7-.2 9.1-4 10.5-.5.1-2.5 0-5.8-.4-3.3-.3-8-1-14.1-1.9l10.5-21.9 1.4-1.5c1.2-.5 4 .9 8.7 3.8 1.2 2.8 1.9 4.7 2.1 6.1.5 2.1.9 3.9 1.2 5.3zm-37.2 33.3c.3 1.4-.7 5.5-2.8 12.3l-11.4-8.6 2.8-7.8 1.6-.6c.5-.1 3.5 1.2 8.7 3.9l1.1.8zm196.2-449.3-5.2-3.9 2.8-7.8 6.3 4.7-3.9 7zm-159.8 347.8c.9 4.3-.6 7.1-4.4 8.4-5.5 1.8-9-.7-10.5-7.8l.6-1.4 13.2-4.5 1.1 5.3zm175.2-414.6c-1.2.3-2.8 1.5-5 3.4-2.2 2-4.3 4.2-6.2 6.7-1.8 2.5-3.8 4.7-6.1 6.6-2.3 1.9-4.2 3.2-5.8 3.7-3.8 1.3-7.9.5-12.1-2.7 5-4.7 9.4-8.5 13.5-11.4 4.1-2.9 7.8-4.9 11.2-6.1 4.3-1.6 7.9-1.7 10.5-.2zm-14.5-36.2-6.6 2.3-1.7-8.5 6.5-2.3 1.8 8.5zm-96 86.5-5.4-5 3-6.7 6.1 3.6-3.7 8.1zm-26.3 9.1c-.7 2.5-1.5 4.3-2.5 5.4-1 1.1-2 1.8-3 2.2-2.3.8-5.3-.1-9.4-2.5-4-2.5-7.2-3.7-9.5-3.5l3.9-7.1c1.5-1.3 2.2-1.9 2.2-1.9.5-.2.8-.4.8-.4 2.3-.6 8.1 1.9 17.5 7.8zm-26.8 24-6.6 2.3-1.7-8.6 6.6-2.2 1.7 8.5zm22-60c-3.8 1.3-6.7 0-8.6-3.9l3.8-7.1c4.6-.8 8.3-.5 11.2.8 2.9 1.3 4.4 3.4 4.4 6.5l-10.8 3.7zm130.1-112 6.6-2.3 1.7 8.5-6.6 2.2-1.7-8.4zm53.7-9.3c.8-4.8 3-7.9 6.9-9.3 6.6-2.2 10.6.2 12.1 7.3l.4 2.1-12.3 4.2c-3.3 1.2-5.7-.2-7.1-4.3zm672 379.8c.4 2.1-.5 6.2-2.7 12.4l-5.5-5c1.8-2.9 3-5 3.6-6.3.6-1.4 1.2-2.1 1.7-2.3l2.7.2.2 1zm7.4-53.8 3.7-8.1 5.4 5-9.1 3.1zm-30.5 35.5-7.4-10c7.9-10.3 11.6-15.4 11-15.2 2.2-.8 4.1.1 5.9 2.6l-9.5 22.6zm-3-61.7-1.7.6s-2.8-1-8.5-2.8l2.8-7.8c4.5 4.6 6.7 7.2 6.9 7.9l.5 2.1zm-35.6-6.1-3 6.8 1.7-13.1 1.3 6.3zm-19.7-39.9-6.6 2.2-1.8-8.5 6.7-2.3 1.7 8.6zm-17.1-96.8-9 3.1 7.7-9.5 1.3 6.4zm-33.8 468c.3 1.4-.7 4.8-3.2 10.2l-5.2-3.9c3.5-5.8 5.3-8.6 5.3-8.6l1.9.5 1.2 1.8zm18.4-78.1-6.6 2.3-1.7-8.5 6.6-2.3 1.7 8.5zm-33.8 50.4c-.2 4.5-1.9 7.5-5.2 8.6-3.3 1-6-.3-7.9-4.3 1.5-4.2 3.6-6.8 6.4-7.8l5.7-1.9 1 5.4zm-13.2-43.4-6.1-3.7 3.8-7 5.2 3.9-2.9 6.8zm3.9-58.5-6.6 2.3-1.7-8.5 6.6-2.2 1.7 8.4zm-29.7 49c-2.3.1-4.3 1.9-5.9 5.5-1.6 3.5-3.2 7.2-4.8 10.7l-5.2-3.9c4.8-10.8 8.6-16.6 11.4-17.6.6-.2 1.1-.3 1.7-.6.5-.1 1.1 0 1.9.5l.9 5.4zm48.2-152.2s-.8 3.7-2.2 11l-6.3-4.7c1.7-2.9 3-4.8 3.6-5.8.8-.9 1.4-1.6 1.9-1.8l2.5-.9.5 2.2zm-29.9-34.2-4.9 1.7 3.8-7 1.1 5.3zm23-68.3c-.8 4.8-3.4 8-7.8 9.5l-13.1 4.5c.4-6.3 5.2-10.9 13.9-13.9 3.3-1.1 5.6-1.2 7-.1zm-19.1-80.2-6.6 2.2-1.7-8.5 6.6-2.3 1.7 8.6zm331.7-71.8-6.6 2.3-1.7-8.5 6.6-2.3 1.7 8.5z" style="fill-rule:evenodd;clip-rule:evenodd;fill:#969696"/></svg>