<svg xmlns="http://www.w3.org/2000/svg" xml:space="preserve" style="enable-background:new 0 0 800 800" viewBox="0 0 800 800"><style>.st7{fill:#acacac}</style><g id="Layer_1"><path d="M298.5 627.8c-1.1 0-2.1-.4-2.9-1.2-.8-.8-1.2-1.8-1.2-2.9 0-1.1.4-2 1.2-2.9.8-.8 1.7-1.2 2.9-1.2h21.6c5.7 0 10.6 2 14.7 6.1s6.1 9 6.1 14.7c0 5.8-2 10.7-6.1 14.8-4.1 4.1-9 6.1-14.7 6.1h-17.5v18.2c0 1.1-.4 2.1-1.2 2.9-.8.8-1.8 1.2-2.9 1.2-1.1 0-2.1-.4-2.9-1.2-.8-.8-1.2-1.7-1.2-2.9v-22.2c0-1.1.4-2.1 1.2-2.9.8-.8 1.7-1.2 2.9-1.2h21.6c3.5 0 6.5-1.2 9-3.7s3.7-5.5 3.7-9-1.2-6.5-3.7-9-5.5-3.7-9-3.7h-21.6zM353.9 683.6c-1.1 0-2.1-.4-2.9-1.2-.8-.8-1.2-1.7-1.2-2.9v-55.8c0-1.1.4-2 1.2-2.9.8-.8 1.7-1.2 2.9-1.2 1.1 0 2.1.4 2.9 1.2.8.8 1.2 1.8 1.2 2.9v51.7h35.4c1.1 0 2.1.4 2.9 1.2.8.8 1.2 1.8 1.2 2.9 0 1.1-.4 2.1-1.2 2.9-.8.8-1.8 1.2-2.9 1.2h-39.5zM463.1 681.8c-.8 1.2-1.9 1.8-3.4 1.8h-30.2c-1.1 0-2.1-.4-2.9-1.2-.8-.8-1.2-1.8-1.2-2.9 0-1.1.4-2.1 1.2-2.9.8-.8 1.8-1.2 2.9-1.2h24l-18.2-41.6-20.7 47.3c-.7 1.6-1.9 2.5-3.7 2.5-.6 0-1.1-.1-1.6-.4-1-.4-1.8-1.2-2.1-2.2-.4-1-.4-2.1 0-3.1l24.4-55.8c.7-1.6 1.9-2.5 3.7-2.5 1.8 0 3 .8 3.7 2.5l24.4 55.8c.6 1.4.5 2.7-.3 3.9zM474.1 625.9c-.6-.9-.8-2-.5-3.1.3-1.1.9-1.9 1.8-2.5.9-.6 2-.8 3-.5 1.1.3 2 .9 2.6 1.8l18.6 29.4 18.7-29.4c.6-.9 1.4-1.6 2.5-1.8 1.1-.2 2.1-.1 3.1.5s1.5 1.5 1.8 2.5c.2 1.1.1 2.1-.5 3.1l-21.4 33.9v19.7c0 1.1-.4 2.1-1.2 2.9-.8.8-1.8 1.2-2.9 1.2-1.1 0-2.1-.4-2.9-1.2-.8-.8-1.2-1.7-1.2-2.9v-19.7l-21.5-33.9zM445.1 683.6h-39.5M78.9 722.2c-.2-.3-.3-.7-.2-1 .1-.4.3-.7.6-.9.3-.2.7-.3 1-.2.4.1.7.3.9.6l12 19 12-19c.2-.3.5-.5.9-.6.4-.1.7 0 1.1.2.3.2.5.5.6.9.1.4 0 .7-.2 1l-13 20.6v12.1c0 .4-.1.7-.4 1-.3.3-.6.4-1 .4s-.7-.1-1-.4c-.3-.3-.4-.6-.4-1v-12.1l-12.9-20.6zM131.2 720.1c5 0 9.3 1.8 12.8 5.3s5.3 7.8 5.3 12.8c0 5-1.8 9.3-5.3 12.8s-7.8 5.3-12.8 5.3c-5 0-9.3-1.8-12.8-5.3s-5.3-7.8-5.3-12.8c0-5 1.8-9.3 5.3-12.8 3.5-3.6 7.8-5.3 12.8-5.3zm0 33.4c4.2 0 7.8-1.5 10.8-4.5 3-3 4.5-6.6 4.5-10.8 0-4.2-1.5-7.8-4.5-10.8-3-3-6.6-4.5-10.8-4.5-4.2 0-7.8 1.5-10.8 4.5-3 3-4.5 6.6-4.5 10.8 0 4.2 1.5 7.8 4.5 10.8 3 3 6.6 4.5 10.8 4.5zM181.5 742.7c0 3.7-1.3 6.9-4 9.6-2.6 2.6-5.8 4-9.6 4-3.7 0-6.9-1.3-9.6-4-2.6-2.7-4-5.9-4-9.6v-21.2c0-.4.1-.7.4-1 .3-.3.6-.4 1-.4s.7.1 1 .4c.3.3.4.6.4 1v21.2c0 3 1.1 5.5 3.2 7.6 2.1 2.1 4.6 3.2 7.6 3.2s5.5-1.1 7.6-3.2c2.1-2.1 3.2-4.6 3.2-7.6v-21.2c0-.4.1-.7.4-1 .3-.3.6-.4 1-.4s.7.1 1 .4c.3.3.4.6.4 1v21.2zM188 756.3c-.4 0-.7-.1-1-.4-.3-.3-.4-.6-.4-1v-13.3c0-.4.1-.7.4-1s.6-.4 1-.4h12.9c2.4 0 4.4-.8 6.1-2.5 1.7-1.7 2.5-3.7 2.5-6.1 0-2.4-.8-4.4-2.5-6.1-1.7-1.7-3.7-2.5-6.1-2.5H188c-.4 0-.7-.1-1-.4s-.4-.6-.4-1 .1-.7.4-1c.3-.3.6-.4 1-.4h12.9c3.2 0 5.8 1.1 8.1 3.3 2.2 2.2 3.4 4.9 3.4 8.1 0 2.9-1 5.5-2.9 7.6-2 2.2-4.4 3.4-7.2 3.7l10.2 11.1c.3.3.4.6.4 1s-.2.7-.4 1c-.3.3-.6.4-1 .4s-.7-.2-1-.5L198.6 743h-9v11.9c0 .4-.1.7-.4 1-.5.2-.9.4-1.2.4zM232 722.8c-.4 0-.7-.1-1-.4-.3-.3-.4-.6-.4-1s.1-.7.4-1c.3-.3.6-.4 1-.4h25.8c.4 0 .7.1 1 .4.3.3.4.6.4 1s-.1.7-.4 1c-.3.3-.6.4-1 .4h-11.5v32c0 .4-.1.7-.4 1-.3.3-.6.4-1 .4s-.7-.1-1-.4c-.3-.3-.4-.6-.4-1v-32H232zM286 755.6c-.3.4-.7.6-1.2.6h-18.1c-.4 0-.7-.1-1-.4-.3-.3-.4-.6-.4-1s.1-.7.4-1c.3-.3.6-.4 1-.4h16l-12.5-28.5-13.3 30.5c-.3.6-.7.8-1.3.8-.2 0-.4 0-.6-.1-.4-.2-.6-.4-.7-.8-.1-.4-.1-.7 0-1.1l14.6-33.4c.3-.6.7-.8 1.3-.8.6 0 1 .3 1.3.8l14.6 33.4c.2.6.1 1-.1 1.4zM306 756.3c-5 0-9.3-1.8-12.8-5.3s-5.3-7.8-5.3-12.8c0-5 1.8-9.3 5.3-12.8s7.8-5.3 12.8-5.3c5 0 9.3 1.8 12.8 5.3.3.3.4.6.4 1s-.1.7-.4 1c-.3.3-.6.4-1 .4s-.7-.1-1-.4c-3-3-6.6-4.5-10.8-4.5-4.2 0-7.8 1.5-10.8 4.5-3 3-4.5 6.6-4.5 10.8 0 4.2 1.5 7.8 4.5 10.8 3 3 6.6 4.5 10.8 4.5 4 0 7.5-1.4 10.4-4.1v-9.8h-11.1c-.4 0-.7-.1-1-.4-.3-.3-.4-.6-.4-1s.1-.7.4-1c.3-.3.6-.4 1-.4h12.5c.4 0 .7.1 1 .4.3.3.4.6.4 1V750c0 .4-.1.7-.4 1-3.5 3.5-7.8 5.3-12.8 5.3zM325.7 756.3c-.4 0-.7-.1-1-.4-.3-.3-.4-.6-.4-1v-33.4c0-.4.1-.7.4-1 .3-.3.6-.4 1-.4s.7.1 1 .4c.3.3.4.6.4 1v32h22.3c.4 0 .7.1 1 .4.3.3.4.6.4 1s-.1.7-.4 1c-.3.3-.6.4-1 .4h-23.7zM357.2 756.3c-.4 0-.7-.1-1-.4-.3-.3-.4-.6-.4-1v-33.4c0-.4.1-.7.4-1 .3-.3.6-.4 1-.4s.7.1 1 .4c.3.3.4.6.4 1v33.4c0 .4-.1.7-.4 1-.3.2-.6.4-1 .4zM365 756.3c-.4 0-.7-.1-1-.4-.3-.3-.4-.6-.4-1v-33.4c0-.7.3-1.1.9-1.3.6-.2 1.2-.1 1.6.5l23.3 30.2v-29.3c0-.4.1-.7.4-1 .3-.3.6-.4 1-.4s.7.1 1 .4c.3.3.4.6.4 1V755c0 .7-.3 1.1-1 1.3-.1 0-.3.1-.4.1-.5 0-.8-.2-1.1-.5l-23.3-30.2V755c0 .4-.1.7-.4 1-.3.1-.6.3-1 .3zM421.6 720.1c.4 0 .7.1 1 .4.3.3.4.6.4 1s-.1.7-.4 1c-.3.3-.6.4-1 .4h-23c-.4 0-.7-.1-1-.4-.3-.3-.4-.6-.4-1s.1-.7.4-1c.3-.3.6-.4 1-.4h23zm0 16.7c.4 0 .7.1 1 .4.3.3.4.6.4 1s-.1.7-.4 1c-.3.3-.6.4-1 .4h-23c-.4 0-.7-.1-1-.4-.3-.3-.4-.6-.4-1s.1-.7.4-1c.3-.3.6-.4 1-.4h23zm1.4 18.1c0 .4-.1.7-.4 1-.3.3-.6.4-1 .4h-23c-.4 0-.7-.1-1-.4-.3-.3-.4-.6-.4-1s.1-.7.4-1c.3-.3.6-.4 1-.4h23c.4 0 .7.1 1 .4.3.2.4.6.4 1zM459 756.3c-5 0-9.3-1.8-12.8-5.3s-5.3-7.8-5.3-12.8c0-5 1.8-9.3 5.3-12.8s7.8-5.3 12.8-5.3c5 0 9.3 1.8 12.8 5.3.3.3.4.6.4 1s-.1.7-.4 1c-.3.3-.6.4-1 .4s-.7-.1-1-.4c-3-3-6.6-4.5-10.8-4.5-4.2 0-7.8 1.5-10.8 4.5-3 3-4.5 6.6-4.5 10.8 0 4.2 1.5 7.8 4.5 10.8 3 3 6.6 4.5 10.8 4.5 4 0 7.5-1.4 10.4-4.1v-9.8h-11.1c-.4 0-.7-.1-1-.4-.3-.3-.4-.6-.4-1s.1-.7.4-1c.3-.3.6-.4 1-.4h12.5c.4 0 .7.1 1 .4.3.3.4.6.4 1V750c0 .4-.1.7-.4 1-3.5 3.5-7.8 5.3-12.8 5.3zM495.4 720.1c5 0 9.3 1.8 12.8 5.3s5.3 7.8 5.3 12.8c0 5-1.8 9.3-5.3 12.8s-7.8 5.3-12.8 5.3c-5 0-9.3-1.8-12.8-5.3s-5.3-7.8-5.3-12.8c0-5 1.8-9.3 5.3-12.8 3.5-3.6 7.8-5.3 12.8-5.3zm0 33.4c4.2 0 7.8-1.5 10.8-4.5 3-3 4.5-6.6 4.5-10.8 0-4.2-1.5-7.8-4.5-10.8-3-3-6.6-4.5-10.8-4.5s-7.8 1.5-10.8 4.5c-3 3-4.5 6.6-4.5 10.8 0 4.2 1.5 7.8 4.5 10.8 3 3 6.6 4.5 10.8 4.5zM542.9 720.1c.4 0 .7.1 1 .4.3.3.4.6.4 1s-.1.7-.4 1c-.3.3-.6.4-1 .4h-23c-.4 0-.7-.1-1-.4s-.4-.6-.4-1 .1-.7.4-1c.3-.3.6-.4 1-.4h23zm0 16.7c.4 0 .7.1 1 .4.3.3.4.6.4 1s-.1.7-.4 1c-.3.3-.6.4-1 .4h-23c-.4 0-.7-.1-1-.4s-.4-.6-.4-1 .1-.7.4-1c.3-.3.6-.4 1-.4h23zm1.4 18.1c0 .4-.1.7-.4 1-.3.3-.6.4-1 .4h-23c-.4 0-.7-.1-1-.4-.3-.3-.4-.6-.4-1s.1-.7.4-1 .6-.4 1-.4h23c.4 0 .7.1 1 .4.3.2.4.6.4 1zM565.7 753.5c1.9 0 3.6-.7 4.9-2 1.3-1.3 2-3 2-4.9 0-1.9-.7-3.6-2-4.9-1.4-1.4-3-2-4.9-2h-6.6c-2.7 0-5-1-6.9-2.9-1.9-1.9-2.9-4.2-2.9-6.9s1-5 2.9-6.9c1.9-1.9 4.2-2.9 6.9-2.9h6.6c2.7 0 5 1 6.9 2.9 1.9 1.9 2.9 4.2 2.9 6.9 0 .4-.1.7-.4 1-.3.3-.6.4-1 .4s-.7-.1-1-.4c-.3-.3-.4-.6-.4-1 0-1.9-.7-3.6-2-4.9-1.4-1.3-3-2-4.9-2h-6.6c-1.9 0-3.6.7-4.9 2-1.4 1.4-2 3-2 4.9 0 1.9.7 3.6 2 4.9 1.4 1.4 3 2.1 4.9 2.1h6.6c2.7 0 5 1 6.9 2.9 1.9 1.9 2.9 4.2 2.9 6.9s-1 5-2.9 6.9c-1.9 1.9-4.2 2.9-6.9 2.9h-6.6c-2.7 0-5-1-6.9-2.9-1.9-1.9-2.9-4.2-2.9-6.9 0-.4.1-.7.4-1 .3-.3.6-.4 1-.4s.7.1 1 .4c.3.3.4.6.4 1 0 1.9.7 3.6 2 4.9 1.4 1.4 3 2 4.9 2h6.6zM594.8 756.3c-.4 0-.7-.1-1-.4-.3-.3-.4-.6-.4-1v-33.4c0-.4.1-.7.4-1 .3-.3.6-.4 1-.4s.7.1 1 .4c.3.3.4.6.4 1v15.3h21.6v-15.3c0-.4.1-.7.4-1 .3-.3.6-.4 1-.4s.7.1 1 .4c.3.3.4.6.4 1v33.4c0 .4-.1.7-.4 1-.3.3-.6.4-1 .4s-.7-.1-1-.4c-.3-.3-.4-.6-.4-1v-15.3h-21.6v15.3c0 .4-.1.7-.4 1-.3.2-.6.4-1 .4zM650 720.1c.4 0 .7.1 1 .4.3.3.4.6.4 1s-.1.7-.4 1c-.3.3-.6.4-1 .4h-23c-.4 0-.7-.1-1-.4s-.4-.6-.4-1 .1-.7.4-1c.3-.3.6-.4 1-.4h23zm0 16.7c.4 0 .7.1 1 .4.3.3.4.6.4 1s-.1.7-.4 1c-.3.3-.6.4-1 .4h-23c-.4 0-.7-.1-1-.4s-.4-.6-.4-1 .1-.7.4-1c.3-.3.6-.4 1-.4h23zm1.4 18.1c0 .4-.1.7-.4 1-.3.3-.6.4-1 .4h-23c-.4 0-.7-.1-1-.4-.3-.3-.4-.6-.4-1s.1-.7.4-1 .6-.4 1-.4h23c.4 0 .7.1 1 .4.3.2.4.6.4 1zM657.8 756.3c-.4 0-.7-.1-1-.4-.3-.3-.4-.6-.4-1v-13.3c0-.4.1-.7.4-1s.6-.4 1-.4h12.9c2.4 0 4.4-.8 6.1-2.5 1.7-1.7 2.5-3.7 2.5-6.1 0-2.4-.8-4.4-2.5-6.1-1.7-1.7-3.7-2.5-6.1-2.5h-12.9c-.4 0-.7-.1-1-.4s-.4-.6-.4-1 .1-.7.4-1c.3-.3.6-.4 1-.4h12.9c3.2 0 5.8 1.1 8.1 3.3 2.2 2.2 3.4 4.9 3.4 8.1 0 2.9-1 5.5-2.9 7.6-2 2.2-4.4 3.4-7.2 3.7l10.2 11.1c.3.3.4.6.4 1s-.2.7-.4 1c-.3.3-.6.4-1 .4s-.7-.2-1-.5L668.4 743h-9v11.9c0 .4-.1.7-.4 1-.4.2-.8.4-1.2.4zM712 720.1c.4 0 .7.1 1 .4.3.3.4.6.4 1s-.1.7-.4 1c-.3.3-.6.4-1 .4h-23c-.4 0-.7-.1-1-.4-.3-.3-.4-.6-.4-1s.1-.7.4-1c.3-.3.6-.4 1-.4h23zm0 16.7c.4 0 .7.1 1 .4.3.3.4.6.4 1s-.1.7-.4 1c-.3.3-.6.4-1 .4h-23c-.4 0-.7-.1-1-.4-.3-.3-.4-.6-.4-1s.1-.7.4-1c.3-.3.6-.4 1-.4h23zm1.4 18.1c0 .4-.1.7-.4 1-.3.3-.6.4-1 .4h-23c-.4 0-.7-.1-1-.4-.3-.3-.4-.6-.4-1s.1-.7.4-1c.3-.3.6-.4 1-.4h23c.4 0 .7.1 1 .4.2.2.4.6.4 1z" class="st7"/></g><g id="Layer_3"><path d="M600.5 216.6 346.6 70l-69.9-40.4c-26.6-15.4-58.5-15.4-85.1 0-26.7 15.4-42.6 43-42.6 73.8v373.9c0 30.8 15.9 58.3 42.6 73.7 13.3 7.7 27.9 11.5 42.6 11.5 14.6 0 29.2-3.8 42.6-11.5l56-32.3 77.1-44.5 190.8-110.1c26.7-15.4 42.6-43 42.6-73.7-.2-30.8-16.2-58.4-42.8-73.8zM566.4 305 362.3 422.8l-27.2 15.7-92.6 53.4c-7.6 4.4-14.4 1.5-16.9 0-2.5-1.5-8.5-5.8-8.5-14.7V103.4c0-8.8 5.9-13.2 8.5-14.7 1.5-.9 4.6-2.3 8.5-2.3 2.5 0 5.4.6 8.4 2.3l101.6 58.7 222.2 128.3c7.6 4.4 8.5 11.7 8.5 14.7.1 2.9-.8 10.2-8.4 14.6z" class="st7"/><path d="m409.7 474.2-133 76.8c-13.3 7.7-27.9 11.5-42.6 11.5-14.6 0-29.2-3.8-42.6-11.5-26.7-15.4-42.6-43-42.6-73.7v-286l68.2 74v211.9c0 8.8 5.9 13.2 8.5 14.7 2.5 1.5 9.3 4.4 16.9 0l119.7-69.1 47.5 51.4z" style="fill:#e1111b"/><path d="M643.1 290.3c0 30.8-15.9 58.3-42.6 73.7L409.7 474.2l-77.1 44.5 2.5-80.2 27.2-15.7L566.4 305c7.6-4.4 8.5-11.7 8.5-14.7 0-2.9-.8-10.2-8.5-14.7L344.2 147.4l2.4-77.4 253.9 146.6c26.6 15.4 42.6 43 42.6 73.7z" class="st7"/></g></svg>